<?xml version="1.0" encoding="utf-8"?>
<!-- Generator: Adobe Illustrator 16.0.0, SVG Export Plug-In . SVG Version: 6.00 Build 0)  -->
<!DOCTYPE svg PUBLIC "-//W3C//DTD SVG 1.1//EN" "http://www.w3.org/Graphics/SVG/1.1/DTD/svg11.dtd">
<svg version="1.1" id="Selected_Items" xmlns="http://www.w3.org/2000/svg" xmlns:xlink="http://www.w3.org/1999/xlink" x="0px"
	 y="0px" width="60px" height="60px" viewBox="0 0 60 60" enable-background="new 0 0 60 60" xml:space="preserve">
<g>
	<g>
		<path fill-rule="evenodd" clip-rule="evenodd" fill="#2B3A53" d="M30.281,0.287v13.856c-4.806,3.893-10.411,5.805-16.814,5.737
			v-2.305c0.008-0.188,0.017-0.376,0.025-0.563c0.06-1.212,0.23-2.408,0.513-3.586c0.281-1.169,0.67-2.292,1.165-3.368
			c0.418-0.914,0.914-1.78,1.485-2.6c0.76-1.084,1.622-2.087,2.587-3.01c1.281-1.221,2.741-2.181,4.38-2.881
			c1.255-0.563,2.569-0.947,3.944-1.152c0.188-0.017,0.38-0.034,0.576-0.051c0.624-0.085,1.251-0.115,1.883-0.09
			C30.11,0.274,30.196,0.278,30.281,0.287z M30.153,35.733v1.486c-0.009-0.009-0.013-0.018-0.013-0.026
			c-0.103,0.23-0.23,0.448-0.384,0.653c-0.538,0.726-1.311,1.345-2.318,1.857c-0.683,0.35-1.404,0.614-2.164,0.793
			c-2.63,0.684-4.999,0.329-7.107-1.063c-0.017-0.008-0.034-0.021-0.051-0.038c-0.367-0.248-0.721-0.521-1.063-0.82
			c0.145,0.009,0.299,0.018,0.461,0.026c0.675,0.034,1.293-0.005,1.857-0.115h0.013c0.981-0.214,1.801-0.657,2.458-1.332
			c0.051-0.06,0.103-0.115,0.154-0.166c0-0.009,0.004-0.018,0.013-0.026c0.154-0.213,0.303-0.452,0.448-0.717
			c0.103-0.18,0.201-0.35,0.294-0.513c0.103-0.179,0.205-0.354,0.307-0.524c0.555-0.99,1.409-1.575,2.562-1.755v2.279H30.153z"/>
		<path fill-rule="evenodd" clip-rule="evenodd" fill="#1F2B3D" d="M30.281,14.143V0.287c0.324,0.008,0.641,0.021,0.948,0.038
			c1.477,0.128,2.911,0.457,4.303,0.986H35.52c0.153,0.051,0.299,0.106,0.435,0.167c1.554,0.657,2.967,1.537,4.239,2.638
			c1.178,1.024,2.211,2.186,3.099,3.483c0.871,1.238,1.609,2.548,2.216,3.932c0.409,0.973,0.691,1.968,0.845,2.983
			c0.009,0.077,0.018,0.158,0.026,0.244v2.561c-4.106-0.025-8.448-2.041-13.024-6.044C32.373,12.325,31.349,13.281,30.281,14.143z
			 M46.379,33.506c-2.288-0.47-4.184-2.104-5.687-4.905l-0.179-0.333l0.666-0.358l0.191,0.333c1.332,2.493,3.001,3.982,5.008,4.47
			V33.506z M30.281,37.45c-0.017-0.043-0.038-0.081-0.063-0.115c-0.026-0.043-0.047-0.081-0.064-0.115v-1.486h4.585v-2.24
			c0.93,0.23,1.635,0.794,2.112,1.689c0.103,0.18,0.201,0.359,0.295,0.538c0.085,0.154,0.179,0.32,0.281,0.5
			c0.137,0.265,0.282,0.503,0.436,0.717c0.086,0.12,0.18,0.23,0.282,0.333c0.512,0.521,1.131,0.893,1.856,1.114
			c0.623,0.179,1.323,0.247,2.101,0.205c0.153-0.009,0.299-0.021,0.436-0.039c-0.367,0.351-0.743,0.657-1.127,0.922
			c-0.111,0.068-0.214,0.133-0.308,0.192c-0.384,0.239-0.777,0.439-1.179,0.603c-1.579,0.648-3.299,0.721-5.16,0.217
			c-0.248-0.068-0.486-0.141-0.717-0.217c-0.462-0.163-0.91-0.354-1.345-0.577c-1.076-0.58-1.866-1.297-2.369-2.151
			C30.315,37.506,30.299,37.476,30.281,37.45z"/>
		<path fill-rule="evenodd" clip-rule="evenodd" fill="#F5B949" d="M30.281,14.143c1.067-0.862,2.092-1.818,3.073-2.869
			c4.576,4.004,8.918,6.019,13.024,6.044v15.393c-2.007-0.487-3.676-1.977-5.008-4.47L41.18,27.91l-0.666,0.358l0.179,0.333
			c1.503,2.8,3.398,4.435,5.687,4.905v12.152l-9.4,3.573l-1.101,0.346l-5.584,0.756L30.281,37.45
			c0.018,0.025,0.034,0.056,0.052,0.089c0.503,0.854,1.293,1.571,2.369,2.151c0.435,0.223,0.883,0.414,1.345,0.577
			c0.23,0.076,0.469,0.148,0.717,0.217c1.861,0.504,3.581,0.432,5.16-0.217c0.401-0.163,0.795-0.363,1.179-0.603
			c0.094-0.06,0.196-0.124,0.308-0.192c0.384-0.265,0.76-0.571,1.127-0.922c-0.137,0.018-0.282,0.03-0.436,0.039
			c-0.777,0.042-1.478-0.026-2.101-0.205c-0.726-0.222-1.345-0.594-1.856-1.114c-0.103-0.103-0.196-0.213-0.282-0.333
			c-0.153-0.214-0.299-0.452-0.436-0.717c-0.103-0.18-0.196-0.346-0.281-0.5c-0.094-0.179-0.192-0.358-0.295-0.538
			c-0.478-0.896-1.183-1.459-2.112-1.689v-3.061c0.213-2.877,1.221-4.896,3.021-6.057h-0.025l0.41-0.448
			c-2.271,0.478-3.406,0.811-3.406,0.999l-0.475,0.154l-0.103,9.784h-3.88V14.143z"/>
		<polygon fill-rule="evenodd" clip-rule="evenodd" fill="#074D27" points="46.955,46.85 47.902,48.809 38.746,51.473 
			36.633,49.359 36.979,49.231 46.379,45.658 		"/>
		<polygon fill-rule="evenodd" clip-rule="evenodd" fill="#056133" points="36.979,49.231 36.633,49.359 38.746,51.473 
			47.902,48.809 46.955,46.85 53.845,51.14 53.371,59.976 30.294,59.976 30.294,50.333 35.878,49.577 		"/>
		<path fill-rule="evenodd" clip-rule="evenodd" fill="#FFDD6B" d="M21.522,23.632c2.194,0.674,3.56,2.65,4.098,5.929v3.893
			c-1.153,0.18-2.006,0.765-2.562,1.755c-0.102,0.171-0.205,0.346-0.307,0.524c-0.094,0.163-0.192,0.333-0.294,0.513
			c-0.145,0.265-0.294,0.504-0.448,0.717c-0.009,0.009-0.013,0.018-0.013,0.026c-0.051,0.051-0.103,0.106-0.154,0.166
			c-0.657,0.675-1.477,1.118-2.458,1.332h-0.013c-0.563,0.11-1.182,0.149-1.857,0.115c-0.162-0.009-0.316-0.018-0.461-0.026
			c0.342,0.3,0.696,0.572,1.063,0.82c0.017,0.017,0.034,0.03,0.051,0.038c2.109,1.392,4.478,1.746,7.107,1.063
			c0.76-0.179,1.481-0.443,2.164-0.793c1.007-0.513,1.78-1.132,2.318-1.857c0.154-0.205,0.282-0.423,0.384-0.653
			c0,0.009,0.004,0.018,0.013,0.026c0.018,0.034,0.038,0.072,0.064,0.115c0.025,0.034,0.047,0.072,0.063,0.115l0.013,12.883
			l-1.396-0.192c-0.35-0.052-0.696-0.099-1.038-0.141l-3.611-0.563l-0.641-0.205l-10.142-3.854V19.88
			c6.403,0.068,12.008-1.844,16.814-5.737v20.72h-4.059V23.671l-9.336-1.588l-0.128,0.756L21.522,23.632z"/>
		<path fill-rule="evenodd" clip-rule="evenodd" fill="#B26D2A" d="M30.281,34.863h3.88l0.103-9.784l0.475-0.154
			c0.017,1.528,0.017,3.364,0,5.506v3.061v2.24h-4.585H25.62v-2.279v-3.893v-5.238l-4.098-0.691l-4.764-0.794l0.128-0.756
			l9.336,1.588v11.192H30.281z"/>
		<path fill-rule="evenodd" clip-rule="evenodd" fill="#AE6828" d="M25.62,29.562c-0.538-3.279-1.904-5.255-4.098-5.929l4.098,0.691
			V29.562z M34.738,24.926c0-0.188,1.135-0.521,3.406-0.999l-0.41,0.448h0.025c-1.801,1.161-2.809,3.18-3.021,6.057
			C34.755,28.29,34.755,26.454,34.738,24.926z"/>
		<polygon fill-rule="evenodd" clip-rule="evenodd" fill="#078546" points="13.467,45.377 23.609,49.231 23.955,49.359 
			21.842,51.473 12.635,48.911 13.109,46.978 		"/>
		<path fill-rule="evenodd" clip-rule="evenodd" fill="#049D51" d="M27.861,50c0.342,0.042,0.688,0.089,1.038,0.141l1.396,0.192
			v9.643H7.218L6.744,51.14l6.365-4.162l-0.474,1.934l9.208,2.562l2.113-2.113l-0.346-0.128l0.641,0.205l0.461,0.141L27.861,50z"/>
	</g>
	<g>
		<path fill-rule="evenodd" clip-rule="evenodd" fill="#FFDD6B" d="M32.341,55.808c-0.196,0-0.367-0.073-0.513-0.218
			c-0.145-0.146-0.218-0.316-0.218-0.513s0.073-0.362,0.218-0.499c0.146-0.146,0.316-0.218,0.513-0.218s0.367,0.072,0.512,0.218
			c0.137,0.137,0.205,0.303,0.205,0.499s-0.068,0.367-0.205,0.513C32.708,55.734,32.537,55.808,32.341,55.808z"/>
	</g>
	<g>
		<path fill-rule="evenodd" clip-rule="evenodd" fill="#FFDD6B" d="M32.341,58.778c-0.196,0-0.367-0.072-0.513-0.218
			c-0.145-0.145-0.218-0.315-0.218-0.512s0.073-0.363,0.218-0.5c0.146-0.145,0.316-0.218,0.513-0.218s0.367,0.073,0.512,0.218
			c0.137,0.137,0.205,0.304,0.205,0.5s-0.068,0.367-0.205,0.512C32.708,58.706,32.537,58.778,32.341,58.778z"/>
	</g>
	<g>
		<g>
			<path fill-rule="evenodd" clip-rule="evenodd" fill="#CFCFCF" d="M39.013,21.357c0.41,0.025,0.828,0.102,1.255,0.23
				c1.665,0.504,2.72,1.588,3.164,3.253c0.29,1.119,0.217,2.152-0.218,3.1c-0.162,0.375-0.385,0.734-0.666,1.076
				c-0.009,0.009-0.018,0.017-0.026,0.025c-0.094,0.094-0.188,0.188-0.281,0.282c-0.281,0.282-0.581,0.521-0.896,0.717
				c-0.171,0.103-0.346,0.192-0.525,0.269c-0.495,0.222-1.024,0.35-1.588,0.384c-0.076,0.008-0.149,0.013-0.218,0.013
				c-0.034,0-0.068,0-0.103,0c-0.06,0-0.123-0.004-0.191-0.013c-0.137,0-0.273-0.009-0.41-0.026
				c-0.188-0.025-0.371-0.06-0.551-0.102c-0.811-0.188-1.537-0.598-2.177-1.23c-0.905-0.913-1.37-2.006-1.396-3.278
				c0-0.017,0-0.038,0-0.064c0-0.239,0.018-0.478,0.052-0.717c0.017-0.145,0.042-0.29,0.076-0.436
				c0.111-0.452,0.291-0.883,0.538-1.293c0.196-0.316,0.436-0.615,0.718-0.896c0.017-0.017,0.034-0.035,0.051-0.051
				c0.077-0.077,0.158-0.146,0.243-0.205c0.009-0.008,0.018-0.017,0.025-0.025c0.598-0.453,1.222-0.756,1.87-0.91
				C38.168,21.366,38.586,21.332,39.013,21.357z M41.843,23.099c-0.094-0.094-0.179-0.18-0.256-0.256
				c-0.742-0.632-1.601-0.965-2.574-0.999v8.491c1.102-0.042,2.045-0.457,2.83-1.242c0.282-0.282,0.517-0.585,0.705-0.91
				c0.358-0.623,0.538-1.319,0.538-2.087C43.086,24.926,42.672,23.927,41.843,23.099z"/>
			<path fill-rule="evenodd" clip-rule="evenodd" fill="#FFFFFF" d="M41.843,23.099c0.829,0.828,1.243,1.827,1.243,2.997
				c0,0.769-0.18,1.464-0.538,2.087c-0.188,0.324-0.423,0.627-0.705,0.91c-0.785,0.785-1.729,1.199-2.83,1.242v-8.491
				c0.974,0.034,1.832,0.367,2.574,0.999C41.664,22.919,41.749,23.005,41.843,23.099z"/>
		</g>
	</g>
	<g>
		<g>
			<path fill-rule="evenodd" clip-rule="evenodd" fill="#CFCFCF" d="M31.97,49.84c0.085,0.162,0.132,0.358,0.141,0.589v1.46
				c-0.052,0.23-0.115,0.427-0.192,0.589c0.273-0.103,0.47-0.358,0.589-0.769v-1.114C32.481,50.228,32.302,49.976,31.97,49.84z
				 M30.407,49.353h0.96c0.154,0.043,0.286,0.115,0.397,0.218c0.196-0.085,0.405-0.158,0.627-0.218
				c0.026-0.009,0.052-0.017,0.077-0.025l3.201-0.819c1.085-0.299,1.652-0.201,1.704,0.294c-0.394,1.384-0.394,2.801,0,4.252
				c0.042,0.691-0.777,0.866-2.459,0.525l-2.446-0.641c-0.025,0-0.051-0.004-0.077-0.013c-0.23-0.068-0.443-0.141-0.64-0.218
				c-0.103,0.128-0.227,0.209-0.372,0.243c-0.008,0-0.017,0-0.025,0h-0.974v-0.013h0.026V49.353z M28.716,50.262
				c-0.017,0.043-0.03,0.09-0.039,0.141v1.447c0,0.025,0,0.047,0,0.064c0.017,0.205,0.064,0.38,0.141,0.525
				c-0.333-0.137-0.512-0.389-0.538-0.756v-1.114c0.111-0.393,0.308-0.645,0.589-0.756C28.802,49.934,28.75,50.082,28.716,50.262z"
				/>
			<path fill-rule="evenodd" clip-rule="evenodd" fill="#999999" d="M31.97,49.84c0.332,0.136,0.512,0.388,0.537,0.755v1.114
				c-0.119,0.41-0.315,0.666-0.589,0.769c0.077-0.162,0.141-0.358,0.192-0.589v-1.46C32.102,50.198,32.055,50.002,31.97,49.84z"/>
			<path fill-rule="evenodd" clip-rule="evenodd" fill="#FFFFFF" d="M28.716,50.262c0.034-0.18,0.085-0.328,0.154-0.448
				c-0.282,0.111-0.478,0.363-0.589,0.756v1.114c0.026,0.367,0.205,0.619,0.538,0.756c-0.077-0.146-0.124-0.32-0.141-0.525
				c0-0.018,0-0.039,0-0.064v-1.447C28.687,50.352,28.699,50.305,28.716,50.262z M30.407,49.353v3.586h-0.026v0.013h-0.947
				l-0.013-0.013c-0.128-0.051-0.239-0.106-0.333-0.167c-0.026-0.017-0.047-0.033-0.064-0.051c-0.197,0.086-0.41,0.153-0.641,0.205
				c-0.017,0.009-0.039,0.017-0.064,0.025l-3.214,0.819c-1.076,0.308-1.644,0.21-1.704-0.294c0.401-1.383,0.401-2.801,0-4.252
				c-0.034-0.684,0.786-0.858,2.459-0.525l2.459,0.641c0.025,0.009,0.047,0.013,0.064,0.013c0.239,0.068,0.457,0.146,0.653,0.23
				V49.57c0.103-0.119,0.226-0.2,0.372-0.243h0.999V49.353z"/>
		</g>
	</g>
</g>
</svg>
