<?xml version="1.0" encoding="utf-8"?>
<!-- Generator: Adobe Illustrator 16.0.0, SVG Export Plug-In . SVG Version: 6.00 Build 0)  -->
<!DOCTYPE svg PUBLIC "-//W3C//DTD SVG 1.1//EN" "http://www.w3.org/Graphics/SVG/1.1/DTD/svg11.dtd">
<svg version="1.1" id="Selected_Items" xmlns="http://www.w3.org/2000/svg" xmlns:xlink="http://www.w3.org/1999/xlink" x="0px"
	 y="0px" width="60px" height="60px" viewBox="0 0 60 60" enable-background="new 0 0 60 60" xml:space="preserve">
<g>
	<g>
		<path fill-rule="evenodd" clip-rule="evenodd" fill="#F5B949" d="M46.898,40.449l-11.5,8.301l-1.75-3.801h-3.25v-8.65
			c0.467,0.168,0.934,0.334,1.4,0.5c2.566,0.867,5.017,1.951,7.35,3.25c-0.866-2.6-2.466-4.299-4.8-5.1V28.3
			c0.834-1.3,2.3-1.982,4.4-2.05l2.8,1.05l-2.75-2l-3.75-0.25l4.9-3.949l2.35,1.85l-2-2.95h-0.95l-5.35,3.95l-2.101-0.5l1.65,1.6
			v1.2v8.5h-3.15V0c0.467,0,0.934,0.017,1.4,0.05c1.333,0.133,2.616,0.4,3.85,0.8c2,0.667,3.834,1.75,5.5,3.25
			c0.301,0.267,0.584,0.533,0.851,0.8c1.1,1.1,2.017,2.267,2.75,3.5v16.35l2.1,2.15L46.898,40.449z"/>
		<path fill-rule="evenodd" clip-rule="evenodd" fill="#FFDD6B" d="M30.398,0v34.75h-3.149v-8.5v-1.2l1.7-1.6l-2.101,0.5L21.499,20
			h-0.95l-2,2.95l2.35-1.85l4.9,3.949l-3.75,0.25l-2.8,2l2.85-1.05c2.101,0.067,3.55,0.75,4.351,2.05v6.649
			c-2.334,0.801-3.917,2.5-4.75,5.1c2.766-1.533,5.666-2.783,8.699-3.75v8.65h-3.3l-1.7,3.801l-11.45-8.301V15.4
			c0.3-4.067,1.934-7.567,4.9-10.5c0.267-0.267,0.55-0.534,0.851-0.8c1.666-1.5,3.5-2.583,5.5-3.25c1.533-0.5,3.149-0.783,4.85-0.85
			C30.183,0,30.299,0,30.398,0z M13.999,15.4v11.5l2.15-2.15V8.4C14.916,10.534,14.199,12.866,13.999,15.4z"/>
		<path fill-rule="evenodd" clip-rule="evenodd" fill="#2B3A53" d="M30.398,44.949V55h-0.1h-1.8l-14.55-14.551l0.95,3.6l0.9,2.102
			L21.923,60H7.573L6.749,47.15l7.2-6.701l11.45,8.301l1.7-3.801H30.398z M26.449,34.949c0.266-0.1,0.533-0.166,0.8-0.199h3.149
			v1.549c-3.033,0.967-5.934,2.217-8.699,3.75C22.532,37.449,24.115,35.75,26.449,34.949z M27.249,25.05h-1.45l-4.9-3.949
			l-2.35,1.85l2-2.95h0.95l5.35,3.95l2.101-0.5L27.249,25.05z M44.749,8.4c1.233,2.133,1.934,4.466,2.1,7v11.5l-2.1-2.15V8.4z
			 M13.999,15.4c0.2-2.534,0.917-4.867,2.15-7v16.35l-2.15,2.15V15.4z"/>
		<path fill-rule="evenodd" clip-rule="evenodd" fill="#1F2B3D" d="M30.398,55V44.949h3.25l1.75,3.801l11.5-8.301l6.75,6.701
			L53.023,60h-14.4l6.525-14.75l1-2.301l0.75-2.5L32.349,55H30.398z M35.049,25.05h-1.5l-1.65-1.6l2.101,0.5l5.35-3.95h0.95l2,2.95
			l-2.35-1.85L35.049,25.05z M30.398,36.299V34.75h3.15c0.3,0.033,0.566,0.1,0.8,0.199c2.334,0.801,3.934,2.5,4.8,5.1
			c-2.333-1.299-4.783-2.383-7.35-3.25C31.332,36.633,30.865,36.467,30.398,36.299z"/>
		<path fill-rule="evenodd" clip-rule="evenodd" fill="#650711" d="M30.398,55h1.95l14.55-14.551l-0.75,2.5l-13.399,14.6
			l-2.45-2.398V55H30.398z M38.623,60h-8.25l-0.074-3.75l-2.4,2.549l-12.1-12.648l-0.9-2.102l12.8,13.5l2.6-2.398v1.1l2.25,2.549
			l12.6-13.549L38.623,60z"/>
		<polygon fill-rule="evenodd" clip-rule="evenodd" fill="#470305" points="45.148,45.25 32.549,58.799 30.299,56.25 30.299,55.15 
			32.749,57.549 46.148,42.949 		"/>
		<path fill-rule="evenodd" clip-rule="evenodd" fill="#A1001A" d="M30.299,55.15l-2.6,2.398l-12.8-13.5l-0.95-3.6L28.499,55h1.8
			V55.15z M30.373,60h-8.45l-6.124-13.85l12.1,12.648l2.4-2.549L30.373,60z"/>
		<path fill-rule="evenodd" clip-rule="evenodd" fill="#895521" d="M27.249,26.25h-5.15l-2.85,1.05l2.8-2l3.75-0.25h1.45V26.25z
			 M38.749,26.25h-5.2v-1.2h1.5l3.75,0.25l2.75,2L38.749,26.25z"/>
		<path fill-rule="evenodd" clip-rule="evenodd" fill="#BA762C" d="M22.099,26.25h5.15v8.5c-0.267,0.033-0.534,0.1-0.8,0.199V28.3
			C25.648,27,24.199,26.317,22.099,26.25z M33.549,34.75v-8.5h5.2c-2.101,0.067-3.566,0.75-4.4,2.05v6.649
			C34.115,34.85,33.849,34.783,33.549,34.75z"/>
	</g>
</g>
</svg>
