<?xml version="1.0" encoding="utf-8"?>
<!-- Generator: Adobe Illustrator 16.0.0, SVG Export Plug-In . SVG Version: 6.00 Build 0)  -->
<!DOCTYPE svg PUBLIC "-//W3C//DTD SVG 1.1//EN" "http://www.w3.org/Graphics/SVG/1.1/DTD/svg11.dtd">
<svg version="1.1" id="Selected_Items" xmlns="http://www.w3.org/2000/svg" xmlns:xlink="http://www.w3.org/1999/xlink" x="0px"
	 y="0px" width="60px" height="60px" viewBox="0 0 60 60" enable-background="new 0 0 60 60" xml:space="preserve">
<g>
	<g>
		<path fill-rule="evenodd" clip-rule="evenodd" fill="#FFFFFF" d="M30.228,0.559v2.586c-0.008,0-0.021,0-0.038,0
			c-1.161,0-2.275,0.111-3.342,0.333c-0.299,0.06-0.594,0.128-0.884,0.205c-2.604,0.691-4.93,2.058-6.979,4.098
			c-0.051,0.051-0.106,0.106-0.167,0.166c-2.843,2.929-4.324,6.425-4.443,10.488c-0.009,0.068-0.013,0.141-0.013,0.218V44.97h-3.164
			V19.409c0.026-4.346,1.332-8.166,3.919-11.461c0.495-0.632,1.037-1.242,1.626-1.831c2.125-2.117,4.499-3.628,7.12-4.533
			c1.972-0.683,4.081-1.024,6.326-1.024C30.207,0.559,30.22,0.559,30.228,0.559z M30.228,50.732H7.562l3.637-3.971l0.051-0.063
			h3.522h12.076h3.38V50.732z"/>
		<path fill-rule="evenodd" clip-rule="evenodd" fill="#CFCFCF" d="M33.647,3.491c-1.093-0.231-2.232-0.346-3.42-0.346V0.559
			c2.263,0,4.38,0.35,6.353,1.05c2.587,0.905,4.926,2.408,7.018,4.508c0.589,0.589,1.136,1.199,1.639,1.831
			c2.587,3.27,3.902,7.069,3.944,11.397V44.97h-3.15V18.807c-0.042-4.218-1.541-7.837-4.494-10.86
			c-0.061-0.06-0.115-0.115-0.167-0.166c-2.023-2.023-4.319-3.385-6.89-4.085C34.207,3.619,33.929,3.551,33.647,3.491z
			 M45.826,46.698h3.367l3.676,4.034H30.228v-4.034h3.548H45.826z"/>
		<path fill-rule="evenodd" clip-rule="evenodd" fill="#FFDD6B" d="M30.164,7.153h-2.638l-0.678-3.675
			c1.067-0.222,2.181-0.333,3.342-0.333c0.018,0,0.03,0,0.038,0v4.008H30.164z M30.228,46.698h-3.38l0.602-4.239h2.715h0.063V46.698
			z M7.562,50.732h22.666v9.284H8.215l-0.653-9.259V50.732z"/>
		<path fill-rule="evenodd" clip-rule="evenodd" fill="#F5B949" d="M30.228,3.145c1.188,0,2.327,0.115,3.42,0.346l-0.563,3.662
			h-2.856V3.145z M30.228,42.459h2.933l0.615,4.239h-3.548V42.459z M30.228,60.017v-9.284h22.642l0.025,0.025l-0.653,9.259H30.228z"
			/>
		<path fill-rule="evenodd" clip-rule="evenodd" fill="#056133" d="M30.164,16.387V7.153h0.063h2.856
			c0.068,0.171,0.094,0.372,0.076,0.602v3.368c1.384,0.273,2.647,0.738,3.791,1.396c1.144,0.649,2.074,1.477,2.792,2.484
			c0.7,1.033,1.054,2.275,1.063,3.727c0.009,0.478-0.077,0.798-0.256,0.96c-0.171,0.154-0.495,0.222-0.974,0.205h-4.098
			c-0.384-0.009-0.653-0.132-0.807-0.372c-0.137-0.213-0.256-0.461-0.358-0.743c-0.061-0.239-0.158-0.453-0.295-0.641
			c-0.128-0.196-0.32-0.41-0.576-0.64c-0.41-0.375-0.939-0.657-1.588-0.845c-0.538-0.153-1.08-0.243-1.627-0.269
			C30.211,16.387,30.189,16.387,30.164,16.387z M33.16,42.459h-2.933h-0.063v-8.644c0.018,0,0.038,0,0.063,0
			c0.18,0.009,0.359,0.013,0.538,0.013c1.153,0.034,2.122-0.146,2.907-0.538c0.776-0.4,1.179-1.169,1.204-2.305
			c-0.025-0.769-0.389-1.34-1.089-1.716c-0.726-0.375-1.64-0.683-2.74-0.922c-0.273-0.051-0.547-0.111-0.82-0.179
			c-0.017-0.008-0.038-0.017-0.063-0.025v-6.313c0.025,0.008,0.047,0.017,0.063,0.025c0.641,0.205,1.269,0.389,1.883,0.551
			c0.828,0.205,1.473,0.393,1.934,0.563c0.777,0.213,1.584,0.478,2.421,0.794c0.862,0.333,1.682,0.772,2.458,1.319
			c0.743,0.563,1.366,1.31,1.87,2.241c0.47,0.905,0.709,2.07,0.717,3.496c-0.008,1.665-0.358,3.099-1.05,4.303
			c-0.7,1.194-1.682,2.151-2.945,2.868c-1.238,0.708-2.689,1.183-4.354,1.422V42.459z"/>
		<path fill-rule="evenodd" clip-rule="evenodd" fill="#049D51" d="M27.526,7.153h2.638v9.233c-0.103-0.009-0.196-0.013-0.282-0.013
			c-0.025,0-0.047,0-0.064,0c-0.461,0.008-0.969,0.081-1.524,0.217c-0.555,0.137-1.037,0.384-1.447,0.743
			c-0.427,0.358-0.645,0.849-0.653,1.473c0.025,0.631,0.35,1.178,0.973,1.639c0.632,0.453,1.404,0.833,2.318,1.14
			c0.12,0.042,0.23,0.081,0.333,0.115c0.111,0.042,0.227,0.085,0.346,0.128v6.313c-0.119-0.026-0.235-0.051-0.346-0.077
			c-0.743-0.179-1.494-0.38-2.254-0.602c-1.435-0.444-2.766-0.973-3.996-1.588c-1.229-0.631-2.219-1.477-2.971-2.535
			c-0.751-1.067-1.136-2.48-1.153-4.239c0.009-1.562,0.372-2.902,1.089-4.021c0.726-1.11,1.69-1.998,2.894-2.664
			c1.195-0.683,2.536-1.152,4.021-1.408V7.755C27.432,7.525,27.458,7.324,27.526,7.153z M30.164,33.815v8.644h-2.715v-3.137
			c-1.485-0.299-2.86-0.824-4.124-1.575c-1.264-0.734-2.284-1.69-3.061-2.869c-0.794-1.178-1.2-2.565-1.217-4.162
			c-0.008-0.47,0.077-0.781,0.256-0.935c0.162-0.171,0.482-0.248,0.96-0.23h4.072c0.487-0.018,0.85,0.047,1.088,0.192
			c0.248,0.145,0.388,0.47,0.423,0.973c0.017,0.273,0.089,0.55,0.217,0.833c0.12,0.299,0.312,0.598,0.576,0.896
			c0.453,0.495,1.055,0.857,1.806,1.089c0.435,0.119,0.892,0.204,1.37,0.256C29.929,33.799,30.045,33.807,30.164,33.815z"/>
		<polygon fill-rule="evenodd" clip-rule="evenodd" fill="#CCCCCC" points="14.771,46.698 11.25,46.698 10.853,46.698 
			10.789,46.762 10.789,44.97 11.198,44.97 14.362,44.97 14.771,44.97 		"/>
		<polygon fill-rule="evenodd" clip-rule="evenodd" fill="#999999" points="49.181,44.97 49.386,44.97 49.386,46.698 49.193,46.698 
			45.826,46.698 45.826,44.97 46.03,44.97 		"/>
	</g>
</g>
</svg>
