<?xml version="1.0" encoding="utf-8"?>
<!-- Generator: Adobe Illustrator 16.0.0, SVG Export Plug-In . SVG Version: 6.00 Build 0)  -->
<!DOCTYPE svg PUBLIC "-//W3C//DTD SVG 1.1//EN" "http://www.w3.org/Graphics/SVG/1.1/DTD/svg11.dtd">
<svg version="1.1" id="Selected_Items" xmlns="http://www.w3.org/2000/svg" xmlns:xlink="http://www.w3.org/1999/xlink" x="0px"
	 y="0px" width="60px" height="60px" viewBox="0 0 60 60" enable-background="new 0 0 60 60" xml:space="preserve">
<g>
	<g>
		<path fill-rule="evenodd" clip-rule="evenodd" fill="#2B3A53" d="M53.64,52.65h-2.895v-3.816l-2.344-2.343l2.023-1.37l3.42,3.713
			L53.64,52.65z M10.15,45.121l3.355-3.728c5.472,4.27,10.949,8.358,16.43,12.269c0.034,0.025,0.068,0.052,0.103,0.077
			c0.009,0,0.018,0.004,0.025,0.013l0.064,0.051l-0.025,0.026l0.191,0.191l-2.843,3.061l-15.265-10.59L10.15,45.121z M8.934,46.401
			l1.831,1.523l-0.922,0.909v3.816H6.949l-0.205-3.816L8.934,46.401z M26.12,21.007c-4.064,0.239-8.269,0.82-12.614,1.742
			C8.221,17.66,6.117,13.285,7.192,9.623c0.273-1.05,0.836-2.053,1.69-3.009c0.845-1.007,1.929-1.883,3.252-2.625
			c0.47-0.273,0.943-0.529,1.422-0.768c3.936-1.836,9.451-2.736,16.545-2.702c0.06,0,0.123,0,0.191,0v20.4c-0.068,0-0.132,0-0.191,0
			C28.771,20.917,27.443,20.947,26.12,21.007z M30.294,34.696v6.569h-8.657v-1.473l3.842-5.097H30.294z"/>
		<path fill-rule="evenodd" clip-rule="evenodd" fill="#1F2B3D" d="M34.469,21.007c-1.323-0.06-2.65-0.089-3.982-0.089l-0.09-0.103
			c-0.033,0.067-0.067,0.101-0.103,0.103v-20.4c0.068,0,0.133,0,0.192,0c7.095-0.034,12.609,0.866,16.545,2.702
			c1.494,0.674,2.749,1.502,3.766,2.484c0.333,0.273,0.636,0.576,0.909,0.909c0.854,0.956,1.43,1.959,1.729,3.009
			c1.05,3.663-1.067,8.038-6.352,13.126c-1.084-0.205-2.173-0.422-3.266-0.653c-1.042-0.146-2.092-0.299-3.15-0.461
			c-1.016-0.111-2.049-0.231-3.099-0.359C36.518,21.208,35.485,21.118,34.469,21.007z M47.083,41.688l3.342,3.433l-2.023,1.37
			l-15.213,10.59l-2.895-3.061l0.192-0.191L47.083,41.688z M35.147,34.748l3.842,5.097v1.421h-8.695v-6.569h4.828L35.147,34.748z
			 M8.934,46.401l1.216-1.28l2.036,1.37l-1.421,1.434L8.934,46.401z"/>
		<path fill-rule="evenodd" clip-rule="evenodd" fill="#B26D2A" d="M30.294,34.261h4.175V21.007c1.017,0.111,2.049,0.201,3.1,0.269
			c1.05,0.128,2.083,0.248,3.099,0.359c1.059,0.162,2.108,0.315,3.15,0.461c1.093,0.23,2.182,0.448,3.266,0.653
			c-1.017-0.068-2.07-0.068-3.163,0c-1.221,0.068-2.403,0.269-3.548,0.602c-1.221,0.384-2.343,1.011-3.367,1.882
			c-0.846,0.751-1.388,1.703-1.627,2.856c-0.076,0.375-0.153,0.755-0.23,1.14v5.468h-0.025h0.025v0.052l-0.025-0.052h-4.828V34.261z
			"/>
		<path fill-rule="evenodd" clip-rule="evenodd" fill="#F5B949" d="M35.147,34.748v-0.052v-5.468c0.077-0.384,0.154-0.764,0.23-1.14
			c0.239-1.153,0.781-2.104,1.627-2.856c1.024-0.871,2.146-1.498,3.367-1.882c1.145-0.333,2.327-0.534,3.548-0.602
			c1.093-0.068,2.146-0.068,3.163,0v18.94L30.486,53.829l-0.192,0.089v-5.993h3.867c0.146,0,0.27-0.047,0.372-0.141
			c0.094-0.103,0.141-0.227,0.141-0.371c0-0.146-0.047-0.265-0.141-0.358c-0.103-0.103-0.227-0.154-0.372-0.154h-3.867v-5.635h8.695
			v-1.421L35.147,34.748z M30.486,20.917c1.332,0,2.659,0.03,3.982,0.089v13.254h-4.175V20.917
			C30.363,20.917,30.427,20.917,30.486,20.917z"/>
		<polygon fill-rule="evenodd" clip-rule="evenodd" fill="#650711" points="48.401,46.491 50.745,48.834 50.745,52.65 53.64,52.65 
			53.242,59.976 30.294,59.976 30.294,54.021 33.188,57.081 		"/>
		<path fill-rule="evenodd" clip-rule="evenodd" fill="#FFDD6B" d="M30.294,53.918l-0.166-0.115l-0.064-0.051
			c-0.008-0.009-0.017-0.013-0.025-0.013c-0.034-0.025-0.068-0.052-0.103-0.077c-5.481-3.91-10.958-7.999-16.43-12.269V22.749
			c6.462-0.606,10.454,0.888,11.973,4.482v7.466l-3.842,5.097v1.473h8.657V46.9h-2.74l-2.766-2.562
			c-0.103-0.102-0.222-0.148-0.358-0.141c-0.145,0.009-0.265,0.064-0.359,0.167c-0.102,0.103-0.149,0.226-0.141,0.371
			c0.009,0.137,0.064,0.256,0.167,0.358l2.907,2.702c0.094,0.086,0.209,0.128,0.346,0.128h2.945V53.918z M30.294,20.917v13.343
			H26.12V21.007c1.323-0.06,2.651-0.089,3.983-0.089C30.162,20.917,30.226,20.917,30.294,20.917z"/>
		<path fill-rule="evenodd" clip-rule="evenodd" fill="#BA762C" d="M13.506,22.749c4.345-0.922,8.55-1.502,12.614-1.742v13.254
			h4.174v0.436h-4.815V27.23C23.959,23.636,19.968,22.143,13.506,22.749z M30.294,46.9v1.024h-2.945
			c-0.136,0-0.251-0.042-0.346-0.128l-2.907-2.702c-0.103-0.103-0.158-0.222-0.167-0.358c-0.009-0.146,0.039-0.269,0.141-0.371
			c0.094-0.103,0.214-0.158,0.359-0.167c0.136-0.008,0.256,0.039,0.358,0.141l2.766,2.562H30.294z"/>
		<path fill-rule="evenodd" clip-rule="evenodd" fill="#A1001A" d="M12.187,46.491l15.265,10.59l2.843-3.061v5.955H7.359
			l-0.41-7.325h2.894v-3.816l0.922-0.909L12.187,46.491z M30.294,53.918l-0.191-0.089l0.025-0.026L30.294,53.918z"/>
		<path fill-rule="evenodd" clip-rule="evenodd" fill="#AE6828" d="M30.294,47.925V46.9h3.867c0.146,0,0.27,0.052,0.372,0.154
			c0.094,0.094,0.141,0.213,0.141,0.358c0,0.145-0.047,0.269-0.141,0.371c-0.103,0.094-0.227,0.141-0.372,0.141H30.294z"/>
		
			<polyline fill-rule="evenodd" clip-rule="evenodd" fill="none" stroke="#B26D2A" stroke-width="0.1" stroke-linecap="round" stroke-linejoin="round" stroke-miterlimit="3" points="
			25.479,34.696 30.294,34.696 35.122,34.696 35.147,34.696 		"/>
	</g>
	<g>
		<g>
			<path fill-rule="evenodd" clip-rule="evenodd" fill="#650711" d="M30.142,21.567v-8.606c3.116,0,6.135,0.431,9.055,1.293
				c0.436,0.137,0.858,0.269,1.268,0.397c4.235,1.426,6.387,4.312,6.455,8.657c-4.338-0.862-8.538-1.409-12.603-1.639
				c-1.323-0.068-2.646-0.103-3.97-0.103C30.278,21.567,30.21,21.567,30.142,21.567z"/>
			<path fill-rule="evenodd" clip-rule="evenodd" fill="#A1001A" d="M30.142,21.567c-0.068-0.026-0.137-0.026-0.205,0
				c-1.323,0-2.643,0.034-3.958,0.103c-4.072,0.23-8.277,0.777-12.614,1.639c0.034-0.393,0.085-0.79,0.154-1.191
				c0.614-4.081,2.902-6.702,6.864-7.863c0.103-0.034,0.205-0.068,0.307-0.103c2.775-0.726,5.622-1.123,8.542-1.191
				c0.299-0.034,0.602-0.034,0.909,0V21.567z"/>
		</g>
	</g>
	<g>
		<g>
			<polygon fill-rule="evenodd" clip-rule="evenodd" fill="#FFDD6B" points="29.886,5.84 29.886,15.804 24.955,18.916 
				26.838,13.473 23.431,10.617 28.003,10.617 			"/>
			<polygon fill-rule="evenodd" clip-rule="evenodd" fill="#F5B949" points="29.886,5.84 31.769,10.617 36.392,10.617 
				32.985,13.473 34.816,18.916 29.886,15.804 			"/>
		</g>
	</g>
</g>
</svg>
