<?xml version="1.0" encoding="utf-8"?>
<!-- Generator: Adobe Illustrator 16.0.0, SVG Export Plug-In . SVG Version: 6.00 Build 0)  -->
<!DOCTYPE svg PUBLIC "-//W3C//DTD SVG 1.1//EN" "http://www.w3.org/Graphics/SVG/1.1/DTD/svg11.dtd">
<svg version="1.1" id="Selected_Items" xmlns="http://www.w3.org/2000/svg" xmlns:xlink="http://www.w3.org/1999/xlink" x="0px"
	 y="0px" width="60px" height="60px" viewBox="0 0 60 60" enable-background="new 0 0 60 60" xml:space="preserve">
<symbol  id="Símbolo_6" viewBox="-100.399 -115.899 200.8 231.8">
	<g id="Capa_3_7_">
		<g>
			<path fill-rule="evenodd" clip-rule="evenodd" fill="#CCCCCC" d="M12.9,92.9h-13v3.6h8.7v4.4h-8.7v4.7h13V92.9z M-12.9,85.45
				v7.45h12.8v-7.45H-12.9z M-0.1,78.4v7.05h13h21.95v-24.2H-0.1v-5.699h-34.75v5.699H-0.1v1.4h27.95V67H-0.1v7.051h27.95v4.35H-0.1
				z M32.6,37.101v0.1H-0.1v6.55h32.7v5.101H-0.1v6.45h45.65v-25H-0.1v1.65h32.7V37.101z M22.85,18.45V12.9h28v5.55H22.85z
				 M22.85,6.05v-5.6h28v5.6H22.85z M-45.5,30.3h45.4v-5h-15.95H-45.5V30.3z M-57.95-25.149h41.9v-6.1c-0.767,0-1.533,0-2.3,0
				c-11.467,0-22.917-0.017-34.351-0.05h-2.6l-2.65,0.05V-25.149z M-16.05-82.5H-73.1v6h57.05V-82.5z M73.1-76.5h-57v45.25
				c0.733,0,1.5,0,2.3,0c11.433,0,22.883-0.017,34.35-0.05h2.6l17.75-0.1V-76.5z M22.85-24.35v-0.8H16.1v50.2h41.85v-50.2h-7.1v0.8
				v5.55h-28V-24.35z M50.85-11.95v5.6h-28v-5.6H50.85z M63.5-43.85v5.15H25.4v-5.15H63.5z M25.4-69.85v-5.1h38.1v5.1H25.4z
				 M25.4-59.5v-5.05h38.1v5.05H25.4z M63.5-49.1H25.4v-5.15h38.1V-49.1z"/>
			<path fill-rule="evenodd" clip-rule="evenodd" fill="#FFFFFF" d="M-0.1,92.9h-12.8v12.7h12.8v-4.7h-8.5v-4.4h8.5V92.9z
				 M-0.1,62.65v-1.4h-34.75v24.2h21.95h12.8V78.4h-27.75v-4.35H-0.1V67h-27.75v-4.35H-0.1z M-0.1,30.3h-45.4v25h45.4v-6.45h-32.5
				V43.75h32.5V37.2h-32.5v-0.1v-5.15h32.5V30.3z M-16.05-25.149h-41.9v50.2h41.9V-25.149z M-16.05-76.5H-73.1v45.1l17.8,0.1h2.6
				c11.434,0.034,22.884,0.05,34.351,0.05c0.767,0,1.533,0,2.3,0V-76.5z M-50.85,12.9h28v5.55h-28V12.9z M-50.85,0.45h28v5.6h-28
				V0.45z M-25.4-38.7h-38.1v-5.15h38.1V-38.7z M-22.85-18.8h-28v-5.55h28V-18.8z M-22.85-6.35h-28v-5.6h28V-6.35z M-63.5-64.55
				h38.1v5.05h-38.1V-64.55z M-63.5-74.95h38.1v5.1h-38.1V-74.95z M-25.4-54.25v5.15h-38.1v-5.15H-25.4z M50.85-25.149h-28v0.8h28
				V-25.149z"/>
			<path fill-rule="evenodd" clip-rule="evenodd" fill="#2B3A53" d="M-0.1,105.601h-12.8v10.3h12.8V105.601z M16.1,25.05v-50.2v-6.1
				V-76.5v-6v-0.75H-0.1h-15.95v0.75v6v45.25v6.1v50.2v0.25H-0.1h16.2V25.05z"/>
			<polygon fill-rule="evenodd" clip-rule="evenodd" fill="#1F2B3D" points="12.9,105.601 -0.1,105.601 -0.1,115.9 12.9,115.9 			
				"/>
			<path fill-rule="evenodd" clip-rule="evenodd" fill="#049D51" d="M-0.1,100.9v-4.4h-8.5v4.4H-0.1z M-0.1,78.4v-4.35h-27.75v4.35
				H-0.1z M-0.1,62.65h-27.75V67H-0.1V62.65z M-0.1-83.25v-32.65h-100.3l15.05,32.65h69.3H-0.1z M-0.1,48.851V43.75h-32.5v5.101
				H-0.1z M-50.85,0.45v5.6h28v-5.6H-50.85z M-50.85,12.9v5.55h28V12.9H-50.85z M-0.1,31.95h-32.5v5.15h32.5V31.95z M-25.4-38.7
				v-5.15h-38.1v5.15H-25.4z M-22.85-6.35v-5.6h-28v5.6H-22.85z M-22.85-18.8v-5.55h-28v5.55H-22.85z M-63.5-64.55v5.05h38.1v-5.05
				H-63.5z M-25.4-54.25h-38.1v5.15h38.1V-54.25z M-63.5-74.95v5.1h38.1v-5.1H-63.5z"/>
			<path fill-rule="evenodd" clip-rule="evenodd" fill="#078546" d="M-0.1,100.9h8.7v-4.4h-8.7V100.9z M-0.1,62.65V67h27.95v-4.35
				H-0.1z M-0.1,74.051v4.35h27.95v-4.35H-0.1z M-0.1,37.101h32.7v-5.15H-0.1V37.101z M-0.1,43.75v5.101h32.7V43.75H-0.1z
				 M22.85,6.05h28v-5.6h-28V6.05z M22.85,18.45h28V12.9h-28V18.45z M-0.1-115.899v32.65h16.2h69.3l15-32.65H-0.1z M50.85-24.35h-28
				v5.55h28V-24.35z M50.85-11.95h-28v5.6h28V-11.95z M63.5-43.85H25.4v5.15h38.1V-43.85z M25.4-59.5h38.1v-5.05H25.4V-59.5z
				 M25.4-69.85h38.1v-5.1H25.4V-69.85z M63.5-49.1v-5.15H25.4v5.15H63.5z"/>
			<path fill-rule="evenodd" clip-rule="evenodd" fill="#999999" d="M12.9,85.45h-13v7.45h13V85.45z M-0.1,55.551v5.699h34.95
				v-5.699H-0.1z M-0.1,25.3v5h45.65v-5H16.1H-0.1z M16.1-76.5h57v-6h-57V-76.5z M22.85-25.149h28h7.1v-6.1l-2.6-0.05h-2.6
				c-11.466,0.034-22.917,0.05-34.35,0.05c-0.8,0-1.567,0-2.3,0v6.1H22.85z"/>
		</g>
	</g>
</symbol>
<use xlink:href="#Símbolo_6"  width="200.8" height="231.8" x="-100.399" y="-115.899" transform="matrix(0.252 0 0 -0.252 30.4521 30.7627)" overflow="visible"/>
</svg>
