<?xml version="1.0" encoding="UTF-8" standalone="no"?>
<!-- Created with Inkscape (http://www.inkscape.org/) -->

<svg
   xmlns:dc="http://purl.org/dc/elements/1.1/"
   xmlns:cc="http://creativecommons.org/ns#"
   xmlns:rdf="http://www.w3.org/1999/02/22-rdf-syntax-ns#"
   xmlns:svg="http://www.w3.org/2000/svg"
   xmlns="http://www.w3.org/2000/svg"
   xmlns:sodipodi="http://sodipodi.sourceforge.net/DTD/sodipodi-0.dtd"
   xmlns:inkscape="http://www.inkscape.org/namespaces/inkscape"
   width="64"
   height="64"
   id="svg5367"
   version="1.1"
   inkscape:version="0.91 r13725"
   viewBox="0 0 64 64"
   sodipodi:docname="mln.svg">
  <defs
     id="defs5369" />
  <sodipodi:namedview
     id="base"
     pagecolor="#ffffff"
     bordercolor="#666666"
     borderopacity="1.0"
     inkscape:pageopacity="0.0"
     inkscape:pageshadow="2"
     inkscape:zoom="2.3339192"
     inkscape:cx="36.867009"
     inkscape:cy="73.122763"
     inkscape:current-layer="g5983"
     showgrid="true"
     inkscape:document-units="px"
     inkscape:grid-bbox="true"
     inkscape:window-width="1366"
     inkscape:window-height="750"
     inkscape:window-x="0"
     inkscape:window-y="18"
     inkscape:window-maximized="1" />
  <metadata
     id="metadata5372">
    <rdf:RDF>
      <cc:Work
         rdf:about="">
        <dc:format>image/svg+xml</dc:format>
        <dc:type
           rdf:resource="http://purl.org/dc/dcmitype/StillImage" />
        <dc:title></dc:title>
      </cc:Work>
    </rdf:RDF>
  </metadata>
  <g
     id="layer1"
     inkscape:label="Layer 1"
     inkscape:groupmode="layer">
    <g
       transform="matrix(1.1583308,0,0,1.1583308,-682.38811,-56.994269)"
       id="g3">
      <g
         id="g5">
        <path
           style="clip-rule:evenodd;fill:#080808;fill-rule:evenodd"
           inkscape:connector-curvature="0"
           d="m 531.95,79.8 -0.3,0 -11.95,0 -3.65,0 0,-21.911 c 10.676,0.959 15.663,3.143 15.601,3.111 l 0.299,18.8 z m -11.9,17.45 c -1.5,-1.767 -2.833,-3.033 -4,-3.8 l 0,-1.7 3.65,0 0,-3.4 0.05,0 c 0.533,-0.033 1,0 1.4,0.1 0.399,0.033 0.8,0.117 1.199,0.25 3.268,1.233 3.817,5.933 1.65,14.1 -0.566,-0.933 -1.117,-1.8 -1.65,-2.6 -0.799,-1.133 -1.566,-2.117 -2.299,-2.95 z"
           id="path7" />
        <path
           style="clip-rule:evenodd;fill:#f5b949;fill-rule:evenodd"
           inkscape:connector-curvature="0"
           d="m 519.75,88.35 -0.05,0 0,3.4 -3.65,0 0,-11.95 3.65,0 0.05,4.45 c 0,0.267 0,0.533 0,0.8 0,1.1 0,2.2 0,3.3 z m 12.2,-8.55 0,24.45 -15.9,0 0,-7.95 c 1.233,0.067 2.567,0.384 4,0.95 0.733,0.833 1.5,1.817 2.3,2.95 0.533,0.8 1.084,1.667 1.65,2.6 2.167,-8.167 1.617,-12.866 -1.65,-14.1 -0.399,-0.133 -0.8,-0.217 -1.199,-0.25 l 0,-5.65 c 0.366,-0.2 0.767,-0.4 1.199,-0.6 2.067,-1.034 5.167,-1.833 9.301,-2.4 l 0.299,0 z"
           id="path9" />
        <path
           style="clip-rule:evenodd;fill:#101010;fill-rule:evenodd"
           inkscape:connector-curvature="0"
           d="m 516.05,79.8 -4.3,0 -12.15,0 -0.05,0 0.05,-21.2 c 8.2,-1.6 16.45,-0.711 16.45,-0.711 l 0,21.911 z m -6,8.65 c 0.5,-0.1 1.066,-0.133 1.7,-0.1 l 0,3.4 4.3,0 0,1.7 c -10e-4,-0.034 -0.018,-0.05 -0.05,-0.05 -2.033,1.067 -4.25,3.267 -6.65,6.6 -0.3,0.4 -0.583,0.833 -0.85,1.3 -0.1,0.167 -0.217,0.317 -0.35,0.45 -0.233,0.3 -0.467,0.65 -0.7,1.05 -2.3,-8.933 -1.433,-13.717 2.6,-14.35 z"
           id="path11" />
        <path
           style="clip-rule:evenodd;fill:#ffdd6b;fill-rule:evenodd"
           inkscape:connector-curvature="0"
           d="m 511.75,88.35 0,-8.55 4.3,0 0,11.95 -4.3,0 0,-3.4 z m -1.7,0.1 c -4.033,0.633 -4.899,5.417 -2.6,14.35 0.233,-0.4 0.467,-0.75 0.7,-1.05 0.133,-0.133 0.25,-0.283 0.35,-0.45 0.267,-0.466 0.55,-0.9 0.85,-1.3 1.434,-1.767 3.667,-3 6.7,-3.7 l 0,7.95 -16.5,0 0,-24.45 0.05,0 c 4.867,1.034 8.351,1.967 10.45,2.8 l 0,5.85 z"
           id="path13" />
        <path
           style="clip-rule:evenodd;fill:#ba762c;fill-rule:evenodd"
           inkscape:connector-curvature="0"
           d="m 511.75,79.8 0,8.55 c -0.634,-0.033 -1.2,0 -1.7,0.1 l 0,-5.85 c -2.1,-0.833 -5.583,-1.767 -10.45,-2.8 l 12.15,0 z m 4.3,16.5 c -3.033,0.7 -5.267,1.934 -6.7,3.7 2.4,-3.333 4.617,-5.533 6.65,-6.6 0.032,0 0.049,0.017 0.05,0.05 l 0,2.85 z"
           id="path15" />
        <path
           style="clip-rule:evenodd;fill:#ae6828;fill-rule:evenodd"
           inkscape:connector-curvature="0"
           d="m 521.15,88.45 c -0.4,-0.1 -0.867,-0.133 -1.4,-0.1 0,-1.1 0,-2.2 0,-3.3 0,-0.267 0,-0.533 0,-0.8 l -0.05,-4.45 11.95,0 c -4.134,0.567 -7.233,1.367 -9.301,2.4 -0.433,0.2 -0.833,0.4 -1.199,0.6 l 0,5.65 z m -5.1,7.85 0,-2.85 c 1.167,0.767 2.5,2.033 4,3.8 -1.433,-0.566 -2.767,-0.883 -4,-0.95 z"
           id="path17" />
        <path
           style="clip-rule:evenodd;fill:#a1001a;fill-rule:evenodd"
           inkscape:connector-curvature="0"
           d="m 499.55,104.25 16.5,0 0,7.15 c -0.1,0 -0.183,0 -0.25,0 -5.234,-0.233 -10.65,-2.617 -16.25,-7.15 3.352,3.432 6.693,5.965 10.025,7.6 l -10.025,0 0,-7.6 z"
           id="path19" />
        <path
           style="clip-rule:evenodd;fill:#650711;fill-rule:evenodd"
           inkscape:connector-curvature="0"
           d="m 531.95,104.25 c -3.267,2.6 -6.467,4.517 -9.601,5.75 -2.166,0.8 -4.267,1.267 -6.3,1.4 l 0,-7.15 15.901,0 z m -5.05,7.6 c 0.867,-0.315 1.734,-0.666 2.6,-1.05 l 0,1.05 -2.6,0 z"
           id="path21" />
        <path
           style="clip-rule:evenodd;fill:#470305;fill-rule:evenodd"
           inkscape:connector-curvature="0"
           d="m 516.05,111.85 0,-0.45 c 2.033,-0.133 4.134,-0.6 6.3,-1.4 3.134,-1.233 6.334,-3.15 9.601,-5.75 l 0,7.6 -2.45,0 0,-1.05 c -0.865,0.385 -1.732,0.735 -2.6,1.05 l -10.851,0 z"
           id="path23" />
        <path
           style="clip-rule:evenodd;fill:#560305;fill-rule:evenodd"
           inkscape:connector-curvature="0"
           d="m 516.05,111.85 -6.475,0 c -3.332,-1.635 -6.674,-4.168 -10.025,-7.6 5.601,4.533 11.017,6.917 16.25,7.15 0.067,0 0.15,0 0.25,0 l 0,0.45 z"
           id="path25" />
      </g>
    </g>
    <g
       id="g5983"
       transform="translate(-47.980037,-42.432701)">
      <g
         id="g5985"
         transform="matrix(1.1725621,0,0,1.1725621,-134.21006,62.917094)">
        <path
           id="path5987"
           d="m 94.35,69.2 -3.55,0 0,-17.9 0,17.9 -2.9,0 -3.3,0 0,-19.65 0,19.65 -1.25,0 0,-19.7 c 0.433,0 0.85,0.017 1.25,0.05 0.267,0.034 0.533,0.067 0.8,0.1 0.833,0.1 1.667,0.267 2.5,0.5 0.267,0.067 0.517,0.167 0.75,0.3 0.733,0.233 1.45,0.517 2.15,0.85 0.233,0.133 0.483,0.267 0.75,0.4 0.967,0.533 1.9,1.183 2.8,1.95 0.233,0.2 0.467,0.417 0.7,0.65 0.267,0.233 0.517,0.5 0.75,0.8 0.733,0.7 1.367,1.467 1.9,2.3 0.267,0.367 0.517,0.733 0.75,1.1 1,1.633 1.716,3.383 2.15,5.25 0.333,1.367 0.517,2.8 0.55,4.3 l 0,1.15 -3.45,0 0,-11.8 0,11.8 -3.35,0 0,-15.55 0,15.55 z m -6.45,0 0,-19.05 0,19.05 z"
           inkscape:connector-curvature="0"
           style="clip-rule:evenodd;fill:#cfcfcf;fill-rule:evenodd" />
        <path
           id="path5989"
           d="m 101.15,69.2 0,1.35 -3.45,0 -3.35,0 -3.55,0 -2.9,0 -3.3,0 -3.5,0 -2.85,0 -3.45,0 -3.45,0 -2.95,0 -3.5,0 0,-1.35 3.5,0 0,1.35 0,-1.35 2.95,0 3.45,0 0,1.35 0,-1.35 3.45,0 0,1.35 0,-1.35 2.85,0 2.25,0 1.25,0 0,1.35 0,-1.35 3.3,0 2.9,0 0,1.35 0,-1.35 3.55,0 0,1.35 0,-1.35 3.35,0 0,1.35 0,-1.35 3.45,0 z m -29.8,0 0,1.35 0,-1.35 z m 16.55,0 0,1.35 0,-1.35 z m -6.8,0 0,1.35 0,-1.35 z"
           inkscape:connector-curvature="0"
           style="clip-rule:evenodd;fill:#999999;fill-rule:evenodd" />
        <path
           id="path5991"
           d="m 83.3,89.25 0,-1.2 3.75,0 0,-3.4 c 0,-1.1 0,-2.2 0,-3.3 0,-0.233 0,-0.5 0,-0.8 l -0.1,-3.95 8.9,0 c -1.467,0.267 -2.733,0.583 -3.8,0.95 -0.966,0.267 -1.783,0.583 -2.45,0.95 -0.434,0.2 -0.833,0.4 -1.2,0.6 l 0,10.15 -5.1,0 z"
           inkscape:connector-curvature="0"
           style="clip-rule:evenodd;fill:#ae6828;fill-rule:evenodd" />
        <path
           id="path5993"
           d="m 83.3,95 0,-5.25 c 0,-0.133 0,-0.3 0,-0.5 l 5.1,0 0,-10.15 c 0.367,-0.2 0.767,-0.4 1.2,-0.6 0.667,-0.367 1.483,-0.683 2.45,-0.95 1.067,-0.367 2.333,-0.683 3.8,-0.95 l 3.35,0 0,18.4 -15.9,0 z m 0,-6.95 0,-11.45 3.65,0 0.1,3.95 c 0,0.3 0,0.567 0,0.8 0,1.1 0,2.2 0,3.3 l 0,3.4 -3.75,0 z"
           inkscape:connector-curvature="0"
           style="clip-rule:evenodd;fill:#f5b949;fill-rule:evenodd" />
        <path
           id="path5995"
           d="m 81.1,69.2 -2.85,0 0,-19.05 0,19.05 -3.45,0 0,-17.7 0,17.7 -3.45,0 -2.95,0 0,-12 0,12 -3.5,0 0,-1.15 c 0.033,-1.5 0.2,-2.933 0.5,-4.3 0.533,-2.367 1.533,-4.55 3,-6.55 0.267,-0.333 0.533,-0.65 0.8,-0.95 0.3,-0.4 0.633,-0.783 1,-1.15 0.367,-0.4 0.75,-0.767 1.15,-1.1 0.233,-0.233 0.467,-0.45 0.7,-0.65 0.9,-0.733 1.817,-1.35 2.75,-1.85 0.267,-0.133 0.534,-0.25 0.8,-0.35 0.833,-0.4 1.717,-0.733 2.65,-1 0.233,-0.1 0.467,-0.167 0.7,-0.2 0.7,-0.167 1.417,-0.284 2.15,-0.35 0.267,-0.033 0.517,-0.05 0.75,-0.05 0.133,0 0.25,0 0.35,0 0.3,-0.033 0.566,-0.05 0.8,-0.05 0.067,0 0.133,0 0.2,0 l 0.05,0 c 0.033,0 0.067,0 0.1,0 l 0,19.7 -2.25,0 0,-19.6 0,19.6 z m -9.75,0 0,-15.2 0,15.2 z"
           inkscape:connector-curvature="0"
           style="clip-rule:evenodd;fill:#ffffff;fill-rule:evenodd" />
        <path
           id="path5997"
           d="m 83.3,89.25 c 0,0.2 0,0.367 0,0.5 l 0,5.25 -16.5,0 0,-18.4 2.4,0 c 2.667,0.6 4.833,1.183 6.5,1.75 0.6,0.2 1.133,0.383 1.6,0.55 l 0,10.35 6,0 z m 0,-1.2 -4.3,0 0,-11.45 4.3,0 0,11.45 z"
           inkscape:connector-curvature="0"
           style="clip-rule:evenodd;fill:#ffdd6b;fill-rule:evenodd" />
        <path
           id="path5999"
           d="m 83.3,88.05 0,1.2 -6,0 0,-10.35 c -0.466,-0.167 -1,-0.35 -1.6,-0.55 -1.667,-0.567 -3.833,-1.15 -6.5,-1.75 l 9.8,0 0,11.45 4.3,0 z"
           inkscape:connector-curvature="0"
           style="clip-rule:evenodd;fill:#ba762c;fill-rule:evenodd" />
      </g>
      <g
         id="g6005"
         transform="matrix(1.1725621,0,0,1.1725621,-134.21006,62.917094)">
        <g
           id="g6007">
          <rect
             id="rect6009"
             height="7.9000001"
             width="16.5"
             y="94.320999"
             x="66.75"
             style="clip-rule:evenodd;fill:#161616;fill-rule:evenodd" />
          <rect
             id="rect6011"
             height="7.9000001"
             width="15.9"
             y="94.320999"
             x="83.25"
             style="clip-rule:evenodd;fill-rule:evenodd" />
        </g>
      </g>
      <g
         id="g6013"
         transform="matrix(1.1725621,0,0,1.1725621,-134.21006,62.917094)">
        <g
           id="g6015">
          <rect
             id="rect6017"
             height="6.1500001"
             width="18.9"
             y="70.599998"
             x="83.550003"
             style="clip-rule:evenodd;fill:#cfcfcf;fill-rule:evenodd" />
          <rect
             id="rect6019"
             height="6.1500001"
             width="19.450001"
             y="70.599998"
             x="64.099998"
             style="clip-rule:evenodd;fill:#ffffff;fill-rule:evenodd" />
        </g>
      </g>
      <g
         id="g6093"
         transform="matrix(1.1426727,0,0,1.1426727,-307.27984,-8.139339)">
        <g
           id="g6095">
          <path
             style="fill:none;fill-rule:evenodd;stroke:#000000;stroke-width:0.92916775px;stroke-linecap:butt;stroke-linejoin:miter;stroke-opacity:1"
             d="m 237.11177,8.8310832 -9.76313,-8.94954299"
             id="path6129"
             inkscape:connector-curvature="0" />
          <path
             style="fill:none;fill-rule:evenodd;stroke:#000000;stroke-width:0.92916775px;stroke-linecap:butt;stroke-linejoin:miter;stroke-opacity:1"
             d="m 237.11177,8.7497242 9.76314,-8.94954399"
             id="path6129-2"
             inkscape:connector-curvature="0" />
          <g
             id="g6166"
             transform="matrix(1.0432548,0,0,1.0432548,70.786556,67.03841)" />
        </g>
        <g
           id="g6101"
           transform="matrix(1.0617346,0,0,1.0617346,-123.32264,-63.696401)">
          <g
             id="g6103">
            <polygon
               id="polygon6105"
               points="339.45,67.65 345.65,67.65 345.65,72.45 363.8,72.45 363.8,106.65 339.45,106.65 339.45,102.85 359.5,102.85 359.5,76.7 339.45,76.7 "
               style="clip-rule:evenodd;fill-rule:evenodd" />
            <rect
               id="rect6107"
               height="26.15"
               width="20.049999"
               y="76.699997"
               x="339.45001"
               style="clip-rule:evenodd;fill:#cfcfcf;fill-rule:evenodd" />
            <polygon
               id="polygon6109"
               points="339.45,76.7 319.55,76.7 319.55,102.85 339.45,102.85 339.45,106.65 315.75,106.65 315.75,72.45 333.4,72.45 333.4,67.65 339.45,67.65 "
               style="clip-rule:evenodd;fill:#161616;fill-rule:evenodd" />
            <rect
               id="rect6111"
               height="26.15"
               width="19.9"
               y="76.699997"
               x="319.54999"
               style="clip-rule:evenodd;fill:#ffffff;fill-rule:evenodd" />
          </g>
        </g>
      </g>
      <g
         transform="matrix(1.1920988,0,0,1.1920988,-227.48329,61.641678)"
         id="g6168">
        <path
           id="path6170"
           d="m 211.65,51.1 0.1,9.05 c -0.9,-0.633 -1.783,-1.3 -2.65,-2 -2.967,8.133 -7.617,12.684 -13.95,13.65 l 0,-4.15 c 0.1,-3.633 1.167,-6.867 3.2,-9.7 0.2,-0.267 0.417,-0.55 0.65,-0.85 0.3,-0.367 0.6,-0.717 0.9,-1.05 l 0.05,0 c 0.333,-0.333 0.667,-0.65 1,-0.95 0.2,-0.2 0.417,-0.383 0.65,-0.55 0.8,-0.667 1.617,-1.216 2.45,-1.65 0.233,-0.133 0.45,-0.25 0.65,-0.35 0.767,-0.4 1.55,-0.7 2.35,-0.9 0.267,-0.066 0.5,-0.133 0.7,-0.2 0.633,-0.1 1.283,-0.184 1.95,-0.25 0.2,-0.034 0.417,-0.05 0.65,-0.05 0.333,-0.033 0.667,-0.05 1,-0.05 0.033,0 0.083,0 0.15,0 0.067,0 0.117,0 0.15,0 z"
           inkscape:connector-curvature="0"
           style="clip-rule:evenodd;fill:#161616;fill-rule:evenodd" />
        <path
           id="path6172"
           d="m 211.75,60.15 -0.1,-9.05 c 0.4,0.033 0.8,0.05 1.2,0.05 1.566,0.133 3.083,0.517 4.55,1.15 1.5,0.6 2.867,1.434 4.1,2.5 1.133,0.967 2.133,2.067 3,3.3 0.833,1.2 1.533,2.467 2.1,3.8 0.566,1.333 0.883,2.7 0.95,4.1 -1.367,-0.067 -2.683,-0.233 -3.95,-0.5 -1.367,-0.3 -2.7,-0.683 -4,-1.15 -1.367,-0.533 -2.684,-1.117 -3.95,-1.75 -1.333,-0.733 -2.633,-1.55 -3.9,-2.45 z"
           inkscape:connector-curvature="0"
           style="clip-rule:evenodd;fill-rule:evenodd" />
        <path
           id="path6174"
           d="m 211.65,94.5 0,-8.7 c 0,-0.1 0,-0.316 0,-0.65 -0.033,0.067 -0.05,-0.117 -0.05,-0.55 0,-0.367 0.017,-0.883 0.05,-1.55 0.167,-10.133 0.2,-17.767 0.1,-22.9 1.267,0.9 2.567,1.717 3.9,2.45 1.267,0.633 2.583,1.217 3.95,1.75 1.3,0.467 2.633,0.85 4,1.15 1.267,0.267 2.583,0.433 3.95,0.5 l 0,28.5 -15.9,0 z"
           inkscape:connector-curvature="0"
           style="clip-rule:evenodd;fill:#f5b949;fill-rule:evenodd" />
        <path
           id="path6176"
           d="m 228.9,99 -0.65,0 0.4,-0.35 c 0.067,0.133 0.15,0.25 0.25,0.35 z"
           inkscape:connector-curvature="0"
           style="clip-rule:evenodd;fill:#056133;fill-rule:evenodd" />
        <path
           id="path6178"
           d="m 211.75,60.15 c 0.1,5.133 0.067,12.767 -0.1,22.9 -0.033,0.667 -0.05,1.184 -0.05,1.55 0,0.433 0.017,0.617 0.05,0.55 0,0.333 0,0.55 0,0.65 l 0,8.7 -16.5,0 0,-22.7 c 6.333,-0.966 10.983,-5.517 13.95,-13.65 0.867,0.7 1.75,1.367 2.65,2 z"
           inkscape:connector-curvature="0"
           style="clip-rule:evenodd;fill:#ffdd6b;fill-rule:evenodd" />
      </g>
      <g
         transform="matrix(1.1920988,0,0,1.1920988,-227.48329,61.641678)"
         id="g6180">
        <g
           id="g6182">
          <path
             id="path6184"
             d="m 223.9,70.3 c 0.267,2.167 -0.167,4.133 -1.3,5.9 -1.167,1.767 -2.75,2.716 -4.75,2.85 -0.767,0.067 -1.55,-0.05 -2.35,-0.35 -0.1,-0.1 -0.217,-0.217 -0.35,-0.35 -1.167,-1.167 -1.75,-2.567 -1.75,-4.2 0,-1.633 0.583,-3.033 1.75,-4.2 1.167,-1.167 2.567,-1.767 4.2,-1.8 1.633,0 3.033,0.583 4.2,1.75 0.133,0.133 0.25,0.267 0.35,0.4 z"
             inkscape:connector-curvature="0"
             style="clip-rule:evenodd;fill:#ffffff;fill-rule:evenodd" />
          <path
             id="path6186"
             d="m 215.5,78.7 c 0.8,0.3 1.583,0.417 2.35,0.35 2,-0.133 3.583,-1.083 4.75,-2.85 1.133,-1.767 1.566,-3.733 1.3,-5.9 1.3,1.667 1.633,3.517 1,5.55 -0.633,2.1 -2.017,3.417 -4.15,3.95 -1.933,0.533 -3.683,0.167 -5.25,-1.1 z"
             inkscape:connector-curvature="0"
             style="clip-rule:evenodd;fill:#d7d7d7;fill-rule:evenodd" />
        </g>
      </g>
      <g
         transform="matrix(1.1920988,0,0,1.1920988,-227.48329,61.641678)"
         id="g6188">
        <g
           id="g6190">
          <path
             id="path6192"
             d="m 212.7,86.65 0,-2.55 0,-0.05 c 0.033,-0.033 0.05,-0.083 0.05,-0.15 0.033,-0.1 0.083,-0.2 0.15,-0.3 0.2,-0.4 0.467,-0.783 0.8,-1.15 0.6,-0.567 1.233,-0.934 1.9,-1.1 2.2,-0.434 3.733,0.383 4.6,2.45 0.1,0.267 0.2,0.534 0.3,0.8 0.1,0.233 0.2,0.467 0.3,0.7 0.167,0.367 0.35,0.7 0.55,1 1.033,1.733 2.6,2.517 4.7,2.35 0.167,0 0.333,-0.017 0.5,-0.05 -2.533,3 -5.433,3.917 -8.7,2.75 -0.8,-0.233 -1.567,-0.6 -2.3,-1.1 -1.2,-0.833 -2.083,-1.85 -2.65,-3.05 -0.033,-0.1 -0.083,-0.2 -0.15,-0.3 0,-0.1 -0.017,-0.167 -0.05,-0.2 l 0,-0.05 z"
             inkscape:connector-curvature="0"
             style="clip-rule:evenodd;fill-rule:evenodd" />
          <path
             id="path6194"
             d="m 212.7,84.1 0,2.55 c -0.6,1.467 -1.6,2.684 -3,3.65 -0.8,0.467 -1.617,0.833 -2.45,1.1 -3.5,1.167 -6.567,0.25 -9.2,-2.75 0.167,0 0.333,0.017 0.5,0.05 2.2,0.133 3.883,-0.65 5.05,-2.35 0.167,-0.3 0.316,-0.633 0.45,-1 0.133,-0.267 0.25,-0.517 0.35,-0.75 0.1,-0.267 0.217,-0.517 0.35,-0.75 0.9,-2.067 2.533,-2.9 4.9,-2.5 0.7,0.2 1.333,0.583 1.9,1.15 0.533,0.467 0.917,1 1.15,1.6 z"
             inkscape:connector-curvature="0"
             style="clip-rule:evenodd;fill:#161616;fill-rule:evenodd" />
        </g>
      </g>
      <g
         transform="matrix(1.1920988,0,0,1.1920988,-227.48329,61.641678)"
         id="g6196">
        <g
           id="g6198">
          <rect
             id="rect6200"
             height="7.9000001"
             width="15.9"
             y="94.5"
             x="211.64999"
             style="clip-rule:evenodd;fill-rule:evenodd" />
          <rect
             id="rect6202"
             height="7.9000001"
             width="16.5"
             y="94.5"
             x="195.14999"
             style="clip-rule:evenodd;fill:#161616;fill-rule:evenodd" />
        </g>
      </g>
      <g
         id="g6463"
         transform="matrix(1.0753674,0,0,1.0753674,-192.08805,-123.61575)">
        <g
           id="g6465">
          <path
             id="path6467"
             d="m 129.05,69.35 0,-2.85 16.05,-7.65 0,10.5 -16.05,0 z M 145.5,87.2 c 0.033,0.3 0.05,0.466 0.05,0.5 l 0,7.25 -16.5,0 0,-24.7 3.1,8.15 7.35,0 0,8.8 2.1,0 c 2.567,0.067 3.867,0.067 3.9,0 z m -0.4,-16.95 0.3,12.3 0.05,0 0.1,3.45 -4.3,0 0,-10.1 3.85,-5.65 z"
             inkscape:connector-curvature="0"
             style="clip-rule:evenodd;fill:#ffdd6b;fill-rule:evenodd" />
          <polygon
             id="polygon6469"
             points="145.1,51.3 145.1,58.85 129.05,66.5 129.05,56.7 "
             style="clip-rule:evenodd;fill:#101010;fill-rule:evenodd" />
          <polygon
             id="polygon6471"
             points="129.05,69.35 145.1,69.35 145.1,70.25 141.25,75.9 141,76.3 141,76.25 139.5,78.4 132.15,78.4 129.05,70.25 "
             style="clip-rule:evenodd;fill:#161616;fill-rule:evenodd" />
          <path
             id="path6473"
             d="m 161.25,69.35 -16.15,0 0,-10.5 c 7,-0.133 12.35,-0.1 16.05,0.1 l 0,3.75 -0.05,0 0.15,6.65 z m -10.6,9.25 7.15,0 3.45,-8.35 0.15,24.7 -15.85,0 0,-7.25 c 0,-0.034 -0.017,-0.2 -0.05,-0.5 l 5.15,0 0,-8.6 z m 10.45,-3.1 -0.05,0.05 0.05,0 0,-0.05 z m -16,-5.25 4.1,6.2 0.05,3.55 c 0,0.267 0,0.55 0,0.85 0,0.566 0,1.133 0,1.7 l 0,3.45 -3.7,0 -0.1,-3.45 -0.05,0 -0.3,-12.3 z"
             inkscape:connector-curvature="0"
             style="clip-rule:evenodd;fill:#f5b949;fill-rule:evenodd" />
          <path
             id="path6475"
             d="m 145.1,51.3 15.8,-5.3 0.25,12.95 c -3.7,-0.2 -9.05,-0.233 -16.05,-0.1 l 0,-7.55 z m 4.1,25.15 -4.1,-6.2 0,-0.9 16.15,0 0,0.9 -3.45,8.35 -7.15,0 c -0.467,-0.7 -0.933,-1.4 -1.4,-2.1 l -0.05,-0.05 z"
             inkscape:connector-curvature="0"
             style="clip-rule:evenodd;fill-rule:evenodd" />
          <path
             id="path6477"
             d="m 161.1,75.5 0,0.05 -0.05,0 0.05,-0.05 z m -10.45,3.1 0,8.6 -5.15,0 0.05,-1.2 3.7,0 0,-3.45 c 0,-0.566 0,-1.133 0,-1.7 0,-0.3 0,-0.583 0,-0.85 l -0.05,-3.55 0.05,0.05 c 0.467,0.7 0.933,1.4 1.4,2.1 z"
             inkscape:connector-curvature="0"
             style="clip-rule:evenodd;fill:#ae6828;fill-rule:evenodd" />
          <path
             id="path6479"
             d="m 145.55,86 -0.05,1.2 c -0.033,0.066 -1.333,0.066 -3.9,0 l -2.1,0 0,-8.8 1.5,-2.15 0,0.05 0.25,-0.4 0,10.1 4.3,0 z"
             inkscape:connector-curvature="0"
             style="clip-rule:evenodd;fill:#ba762c;fill-rule:evenodd" />
        </g>
        <g
           id="g6481">
          <g
             id="g6483">
            <rect
               id="rect6485"
               height="7.9000001"
               width="15.9"
               y="94.949997"
               x="145.55"
               style="clip-rule:evenodd;fill-rule:evenodd" />
            <rect
               id="rect6487"
               height="7.9000001"
               width="16.5"
               y="94.949997"
               x="129.05"
               style="clip-rule:evenodd;fill:#161616;fill-rule:evenodd" />
          </g>
        </g>
      </g>
      <g
         id="g6528"
         transform="matrix(1.0370717,0,0,1.0370717,-205.71965,-75.921933)">
        <g
           id="g6530">
          <path
             id="path6532"
             d="m 279.851,192.8 c 15.545,-0.316 22.753,2.784 21.625,9.299 -1.123,6.508 -2.715,11.459 -4.775,14.851 0.833,-4.7 0.316,-9.399 -1.55,-14.101 -1.8,-3.066 -6.867,-4.183 -15.2,-3.35 l -0.1,0 0,-6.699 z"
             inkscape:connector-curvature="0"
             style="clip-rule:evenodd;fill:#080808;fill-rule:evenodd" />
          <path
             id="path6534"
             d="m 275.5,218.45 -11.8,0 -0.45,0 -0.05,0 c -3.67,-7.97 -4.912,-14.328 -3.725,-19.075 1.192,-4.74 7.984,-6.932 20.375,-6.575 l 0,6.7 0,1.4 c -3.801,0.4 -8.268,1.267 -13.4,2.6 -3.333,1.467 -3.633,5.934 -0.9,13.4 0.2,0.434 0.4,0.916 0.601,1.449 l 13.7,0 0,0.101 -0.051,0 -4.3,0 z m 3.95,24.3 -6.9,7.051 0.101,-0.201 -9.4,-5.85 0,-1 16.199,0 z m 0.401,-10.3 -5,0 c -1.967,0.3 -3.518,1.717 -4.65,4.25 -0.133,0.233 -0.217,0.483 -0.25,0.75 -0.467,1.2 -0.85,2.601 -1.15,4.2 l 0,-7.801 c -0.033,-2.933 0.768,-4.732 2.4,-5.399 0.566,-0.267 1.267,-0.351 2.1,-0.25 l 2.15,0 0.05,0 0,2.101 4.3,0 0.051,0 0,2.149 z"
             inkscape:connector-curvature="0"
             style="clip-rule:evenodd;fill:#101010;fill-rule:evenodd" />
          <path
             id="path6536"
             d="m 279.851,200.9 0,17.449 -13.7,0 c -0.2,-0.533 -0.4,-1.016 -0.601,-1.449 -2.732,-7.467 -2.433,-11.934 0.9,-13.4 5.133,-1.333 9.6,-2.199 13.401,-2.6 z m -8.801,49.651 -7.8,0 0,-6.801 7.8,6.801 z m 8.75,0 -4.4,0 4.399,-3.351 0,3.351 z"
             inkscape:connector-curvature="0"
             style="clip-rule:evenodd;fill:#a1001a;fill-rule:evenodd" />
          <path
             id="path6538"
             d="m 296.7,216.95 c -0.333,0.5 -0.684,0.983 -1.05,1.45 l -0.101,0.05 -0.649,0 -11.45,0 -3.6,0 0,-0.101 15.5,0 c 0.1,-0.5 0.199,-0.982 0.3,-1.449 0.5,-4.2 -0.017,-8.4 -1.55,-12.6 -1.733,-3.067 -6.483,-4.201 -14.25,-3.4 l 0,-1.4 0.1,0 c 8.333,-0.833 13.4,0.284 15.2,3.35 1.867,4.701 2.383,9.4 1.55,14.1 z m -9.099,17.5 c -0.967,-1.167 -2.101,-1.833 -3.4,-2 l -4.35,0 0,-2.149 3.6,0 0,-1.851 0,-0.25 0.05,0 -0.05,0.25 c 0.033,-0.101 0.083,-0.183 0.15,-0.25 l 2.149,0 c 0.767,-0.033 1.417,0 1.95,0.101 1.8,0.533 2.65,2.383 2.55,5.549 l 0,7.801 c -0.333,-2.133 -0.833,-3.867 -1.5,-5.2 -0.366,-0.767 -0.75,-1.433 -1.149,-2.001 z m 8.049,8.3 0,1.65 -7.55,4.4 -1.051,0.799 -7.199,-6.85 15.8,0 z"
             inkscape:connector-curvature="0"
             style="clip-rule:evenodd;fill-rule:evenodd" />
          <path
             id="path6540"
             d="m 263.7,218.45 c 4.667,0.934 8.033,1.833 10.1,2.7 l 1.65,7.05 -2.15,0 c -0.833,-0.101 -1.533,-0.017 -2.1,0.25 -1.633,0.667 -2.434,2.467 -2.4,5.399 l 0,7.801 c 0.301,-1.6 0.684,-3 1.15,-4.2 1.633,-1.899 4.934,-2.95 9.9,-3.149 l -0.051,8.449 -0.35,0 -16.2,0 0,-24.3 0.451,0 z m 16.1,0 0,11.851 -4.3,0 0,-2.101 0,-9.75 4.3,0 z"
             inkscape:connector-curvature="0"
             style="clip-rule:evenodd;fill:#ffdd6b;fill-rule:evenodd" />
          <path
             id="path6542"
             d="m 283.45,228.2 0,0.25 0,1.851 -3.6,0 -0.05,0 0,-11.851 0.051,0 3.6,0 0.05,4.399 c 0,0.234 0,0.5 0,0.801 0,0.633 0,1.483 0,2.55 -0.034,0.601 -0.051,1.267 -0.051,2 z m -3.599,6.101 c 2.232,-0.101 4.816,-0.051 7.75,0.149 0.399,0.567 0.783,1.233 1.149,2 0.667,1.333 1.167,3.067 1.5,5.2 l 0,-7.801 c 0.101,-3.166 -0.75,-5.016 -2.55,-5.549 -0.533,-0.101 -1.184,-0.134 -1.95,-0.101 l -2.149,0 c -0.067,0.067 -0.117,0.149 -0.15,0.25 l 0.05,-0.25 -0.05,0 c 0.033,-0.033 0.083,-0.083 0.15,-0.149 l 1.3,-6.65 c 1.933,-1.301 5.267,-2.283 10,-2.95 l 0.649,0 0.101,-0.05 0,24.35 -15.8,0 -0.051,0 0.051,-8.449 z"
             inkscape:connector-curvature="0"
             style="clip-rule:evenodd;fill:#f5b949;fill-rule:evenodd" />
          <path
             id="path6544"
             d="m 279.851,234.301 0,-1.851 4.35,0 c 1.3,0.167 2.434,0.833 3.4,2 -2.934,-0.2 -5.518,-0.25 -7.75,-0.149 z m 3.599,-6.101 c 0,-0.733 0.017,-1.399 0.05,-2 0,-1.066 0,-1.917 0,-2.55 0,-0.301 0,-0.566 0,-0.801 l -0.05,-4.399 11.45,0 c -4.733,0.667 -8.067,1.649 -10,2.95 l -1.3,6.65 c -0.067,0.067 -0.117,0.117 -0.15,0.15 z"
             inkscape:connector-curvature="0"
             style="clip-rule:evenodd;fill:#ae6828;fill-rule:evenodd" />
          <path
             id="path6546"
             d="m 269.95,237.45 c 0.033,-0.267 0.117,-0.517 0.25,-0.75 1.133,-2.533 2.684,-3.95 4.65,-4.25 l 5,0 0,1.851 c -4.966,0.199 -8.267,1.25 -9.9,3.149 z m 5.55,-19 0,9.75 -0.05,0 -1.65,-7.05 c -2.066,-0.867 -5.433,-1.767 -10.1,-2.7 l 11.8,0 z"
             inkscape:connector-curvature="0"
             style="clip-rule:evenodd;fill:#ba762c;fill-rule:evenodd" />
          <path
             id="path6548"
             d="m 279.851,218.35 0,-17.45 c 7.767,-0.8 12.517,0.333 14.25,3.4 1.533,4.199 2.05,8.399 1.55,12.6 -0.101,0.467 -0.2,0.949 -0.3,1.449 l -15.5,0 z m -0.051,32.201 0,-3.351 4.101,3.351 -4.101,0 z m 13.4,0 -2.05,0 2.05,-1.101 0,1.101 z"
             inkscape:connector-curvature="0"
             style="clip-rule:evenodd;fill:#650711;fill-rule:evenodd" />
          <polygon
             id="polygon6550"
             points="295.65,244.4 295.65,250.551 293.2,250.551 293.2,249.45 291.15,250.551 283.9,250.551 279.8,247.2 279.8,242.75 279.851,242.75 287.05,249.6 288.101,248.801 "
             style="clip-rule:evenodd;fill:#470305;fill-rule:evenodd" />
          <polygon
             id="polygon6552"
             points="279.45,242.75 279.8,242.75 279.8,247.2 275.4,250.551 271.05,250.551 263.25,243.75 272.65,249.6 272.55,249.801 "
             style="clip-rule:evenodd;fill:#560305;fill-rule:evenodd" />
        </g>
        <g
           id="g6554">
          <g
             id="g6556">
            <polygon
               id="polygon6558"
               points="280.65,203.4 280.65,213.1 275.8,216.15 277.65,210.801 274.3,208 278.8,208 "
               style="clip-rule:evenodd;fill:#ffdd6b;fill-rule:evenodd" />
            <polygon
               id="polygon6560"
               points="280.65,203.4 282.5,208 287,208 283.65,210.801 285.5,216.15 280.65,213.1 "
               style="clip-rule:evenodd;fill:#f5b949;fill-rule:evenodd" />
          </g>
        </g>
      </g>
      <g
         id="g6605"
         transform="matrix(1.2248182,0,0,1.082686,-409.36636,-13.746324)">
        <g
           id="g6607">
          <path
             id="path6609"
             d="m 407.95,95.75 0,-3.55 -3.55,0 0,3.55 3.55,0 z m 6.7,1.85 -3.55,0 0,3.55 3.551,0 0,-3.55 z m -6.7,-7.25 0,-3.6 -3.55,0 0,3.6 3.55,0 z m 6.7,1.85 -3.55,0 0,3.55 3.551,0 0,-3.55 z m 0,-5.45 -3.55,0 0,3.6 3.551,0 0,-3.6 z m -6.7,-1.6 0,-3.55 -3.55,0 0,3.55 3.55,0 z m 0,16 0,-3.55 -3.55,0 0,3.55 3.55,0 z m -4.95,-12.7 0,-17.3 12.85,12.9 0,19.7 -1.199,0 0,-1.1 -3.551,0 0,1.1 -3.149,0 0,-1.1 -3.55,0 0,1.1 -1.401,0 0,-9.7 0,-5.6 z"
             inkscape:connector-curvature="0"
             style="clip-rule:evenodd;fill:#056133;fill-rule:evenodd" />
          <path
             id="path6611"
             d="m 393.8,92.2 0,3.55 3.55,0 0,-3.55 -3.55,0 z m -3.1,5.4 -3.6,0 0,3.55 3.601,0 0,-3.55 z m 0,-1.85 0,-3.55 -3.6,0 0,3.55 3.6,0 z m 3.1,-9 0,3.6 3.55,0 0,-3.6 -3.55,0 z m -3.1,3.6 0,-3.6 -3.6,0 0,3.6 3.6,0 z m -3.6,-8.75 0,3.55 3.601,0 0,-3.55 -3.601,0 z m 3.6,-1.9 0,-3.45 -3.6,0 0,3.45 3.6,0 z m 6.65,5.45 0,-3.55 -3.55,0 0,3.55 3.55,0 z m 0,-5.45 0,-3.45 -3.55,0 0,3.45 3.55,0 z m -3.55,-5.7 3.55,0 0,-3.6 -3.55,0 0,3.6 z m 6.45,14.45 0,5.6 0,9.7 -2.9,0 0,-1.1 -3.55,0 0,1.1 -3.1,0 0,-1.1 -3.6,0 0,1.1 -3.05,0 0,-34.45 16.2,-16.2 0,35.35 z m -2.9,9.15 -3.55,0 0,3.55 3.55,0 0,-3.55 z"
             inkscape:connector-curvature="0"
             style="clip-rule:evenodd;fill:#049d51;fill-rule:evenodd" />
          <rect
             id="rect6613"
             height="5.5999999"
             width="2.75"
             y="88.449997"
             x="400.25"
             style="clip-rule:evenodd;fill-rule:evenodd" />
        </g>
        <g
           id="g6615">
          <g
             id="g6617">
            <rect
               id="rect6619"
               height="7.9000001"
               width="16.5"
               y="102.2"
               x="383.70001"
               style="clip-rule:evenodd;fill:#161616;fill-rule:evenodd" />
            <rect
               id="rect6621"
               height="7.9000001"
               width="15.899"
               y="102.2"
               x="400.20001"
               style="clip-rule:evenodd;fill-rule:evenodd" />
          </g>
        </g>
      </g>
    </g>
  </g>
</svg>
