<?xml version="1.0" encoding="UTF-8" standalone="no"?>
<svg
   xmlns:dc="http://purl.org/dc/elements/1.1/"
   xmlns:cc="http://creativecommons.org/ns#"
   xmlns:rdf="http://www.w3.org/1999/02/22-rdf-syntax-ns#"
   xmlns:svg="http://www.w3.org/2000/svg"
   xmlns="http://www.w3.org/2000/svg"
   viewBox="0 0 64 64"
   version="1.1"
   id="svg5367"
   height="64"
   width="64">
  <defs
     id="defs5369" />
  <metadata
     id="metadata5372">
    <rdf:RDF>
      <cc:Work
         rdf:about="">
        <dc:format>image/svg+xml</dc:format>
        <dc:type
           rdf:resource="http://purl.org/dc/dcmitype/StillImage" />
        <dc:title></dc:title>
      </cc:Work>
    </rdf:RDF>
  </metadata>
  <g
     id="layer1">
    <g
       id="g3"
       transform="matrix(1.1583308,0,0,1.1583308,-565.32025,-66.091918)">
      <g
         id="g5">
        <path
           id="path7"
           d="m 531.95,79.8 -0.3,0 -11.95,0 -3.65,0 0,-21.911 c 10.676,0.959 15.663,3.143 15.601,3.111 l 0.299,18.8 z m -11.9,17.45 c -1.5,-1.767 -2.833,-3.033 -4,-3.8 l 0,-1.7 3.65,0 0,-3.4 0.05,0 c 0.533,-0.033 1,0 1.4,0.1 0.399,0.033 0.8,0.117 1.199,0.25 3.268,1.233 3.817,5.933 1.65,14.1 -0.566,-0.933 -1.117,-1.8 -1.65,-2.6 -0.799,-1.133 -1.566,-2.117 -2.299,-2.95 z"
           style="clip-rule:evenodd;fill:#080808;fill-rule:evenodd" />
        <path
           id="path9"
           d="m 519.75,88.35 -0.05,0 0,3.4 -3.65,0 0,-11.95 3.65,0 0.05,4.45 c 0,0.267 0,0.533 0,0.8 0,1.1 0,2.2 0,3.3 z m 12.2,-8.55 0,24.45 -15.9,0 0,-7.95 c 1.233,0.067 2.567,0.384 4,0.95 0.733,0.833 1.5,1.817 2.3,2.95 0.533,0.8 1.084,1.667 1.65,2.6 2.167,-8.167 1.617,-12.866 -1.65,-14.1 -0.399,-0.133 -0.8,-0.217 -1.199,-0.25 l 0,-5.65 c 0.366,-0.2 0.767,-0.4 1.199,-0.6 2.067,-1.034 5.167,-1.833 9.301,-2.4 l 0.299,0 z"
           style="clip-rule:evenodd;fill:#f5b949;fill-rule:evenodd" />
        <path
           id="path11"
           d="m 516.05,79.8 -4.3,0 -12.15,0 -0.05,0 0.05,-21.2 c 8.2,-1.6 16.45,-0.711 16.45,-0.711 l 0,21.911 z m -6,8.65 c 0.5,-0.1 1.066,-0.133 1.7,-0.1 l 0,3.4 4.3,0 0,1.7 c -10e-4,-0.034 -0.018,-0.05 -0.05,-0.05 -2.033,1.067 -4.25,3.267 -6.65,6.6 -0.3,0.4 -0.583,0.833 -0.85,1.3 -0.1,0.167 -0.217,0.317 -0.35,0.45 -0.233,0.3 -0.467,0.65 -0.7,1.05 -2.3,-8.933 -1.433,-13.717 2.6,-14.35 z"
           style="clip-rule:evenodd;fill:#101010;fill-rule:evenodd" />
        <path
           id="path13"
           d="m 511.75,88.35 0,-8.55 4.3,0 0,11.95 -4.3,0 0,-3.4 z m -1.7,0.1 c -4.033,0.633 -4.899,5.417 -2.6,14.35 0.233,-0.4 0.467,-0.75 0.7,-1.05 0.133,-0.133 0.25,-0.283 0.35,-0.45 0.267,-0.466 0.55,-0.9 0.85,-1.3 1.434,-1.767 3.667,-3 6.7,-3.7 l 0,7.95 -16.5,0 0,-24.45 0.05,0 c 4.867,1.034 8.351,1.967 10.45,2.8 l 0,5.85 z"
           style="clip-rule:evenodd;fill:#ffdd6b;fill-rule:evenodd" />
        <path
           id="path15"
           d="m 511.75,79.8 0,8.55 c -0.634,-0.033 -1.2,0 -1.7,0.1 l 0,-5.85 c -2.1,-0.833 -5.583,-1.767 -10.45,-2.8 l 12.15,0 z m 4.3,16.5 c -3.033,0.7 -5.267,1.934 -6.7,3.7 2.4,-3.333 4.617,-5.533 6.65,-6.6 0.032,0 0.049,0.017 0.05,0.05 l 0,2.85 z"
           style="clip-rule:evenodd;fill:#ba762c;fill-rule:evenodd" />
        <path
           id="path17"
           d="m 521.15,88.45 c -0.4,-0.1 -0.867,-0.133 -1.4,-0.1 0,-1.1 0,-2.2 0,-3.3 0,-0.267 0,-0.533 0,-0.8 l -0.05,-4.45 11.95,0 c -4.134,0.567 -7.233,1.367 -9.301,2.4 -0.433,0.2 -0.833,0.4 -1.199,0.6 l 0,5.65 z m -5.1,7.85 0,-2.85 c 1.167,0.767 2.5,2.033 4,3.8 -1.433,-0.566 -2.767,-0.883 -4,-0.95 z"
           style="clip-rule:evenodd;fill:#ae6828;fill-rule:evenodd" />
        <path
           id="path19"
           d="m 499.55,104.25 16.5,0 0,7.15 c -0.1,0 -0.183,0 -0.25,0 -5.234,-0.233 -10.65,-2.617 -16.25,-7.15 3.352,3.432 6.693,5.965 10.025,7.6 l -10.025,0 0,-7.6 z"
           style="clip-rule:evenodd;fill:#a1001a;fill-rule:evenodd" />
        <path
           id="path21"
           d="m 531.95,104.25 c -3.267,2.6 -6.467,4.517 -9.601,5.75 -2.166,0.8 -4.267,1.267 -6.3,1.4 l 0,-7.15 15.901,0 z m -5.05,7.6 c 0.867,-0.315 1.734,-0.666 2.6,-1.05 l 0,1.05 -2.6,0 z"
           style="clip-rule:evenodd;fill:#650711;fill-rule:evenodd" />
        <path
           id="path23"
           d="m 516.05,111.85 0,-0.45 c 2.033,-0.133 4.134,-0.6 6.3,-1.4 3.134,-1.233 6.334,-3.15 9.601,-5.75 l 0,7.6 -2.45,0 0,-1.05 c -0.865,0.385 -1.732,0.735 -2.6,1.05 l -10.851,0 z"
           style="clip-rule:evenodd;fill:#470305;fill-rule:evenodd" />
        <path
           id="path25"
           d="m 516.05,111.85 -6.475,0 c -3.332,-1.635 -6.674,-4.168 -10.025,-7.6 5.601,4.533 11.017,6.917 16.25,7.15 0.067,0 0.15,0 0.25,0 l 0,0.45 z"
           style="clip-rule:evenodd;fill:#560305;fill-rule:evenodd" />
      </g>
    </g>
  </g>
</svg>
