<?xml version="1.0" encoding="utf-8"?>
<!-- Generator: Adobe Illustrator 16.0.0, SVG Export Plug-In . SVG Version: 6.00 Build 0)  -->
<!DOCTYPE svg PUBLIC "-//W3C//DTD SVG 1.1//EN" "http://www.w3.org/Graphics/SVG/1.1/DTD/svg11.dtd">
<svg version="1.1" id="Selected_Items" xmlns="http://www.w3.org/2000/svg" xmlns:xlink="http://www.w3.org/1999/xlink" x="0px"
	 y="0px" width="60px" height="60px" viewBox="0 0 60 60" enable-background="new 0 0 60 60" xml:space="preserve">
<g>
	<g>
		<path fill-rule="evenodd" clip-rule="evenodd" fill="#2B3A53" d="M30.189,0.274v26.701h-0.077v0.013H26.13h-0.218L14.528,27
			c-0.256-0.008-0.512-0.013-0.769-0.013V3.616c0.051-2.288,1.413-3.397,4.085-3.33h12.268V0.274H30.189z M29.908,38.743
			l-7.875,7.709c-0.743-6.386,0.422-9.788,3.496-10.206v2.497H29.908z"/>
		<path fill-rule="evenodd" clip-rule="evenodd" fill="#FFDD6B" d="M13.759,47.4V26.987c0.256,0,0.512,0.004,0.769,0.013
			c6.189,0.197,9.856,2.467,11,6.813v2.434c-3.073,0.418-4.239,3.82-3.496,10.206l7.875-7.709h0.282V47.4H13.759z M30.189,26.975
			v11.153h-4.06V26.987h3.982v-0.013H30.189z"/>
		<path fill-rule="evenodd" clip-rule="evenodd" fill="#1F2B3D" d="M34.069,26.975h-3.88V0.274h11.922
			c0.99-0.025,1.798,0.12,2.421,0.436c0.367,0.179,0.67,0.418,0.909,0.717c0.427,0.538,0.648,1.264,0.666,2.177v23.371h-0.525
			c-0.162,0-0.32,0.004-0.474,0.013h-2.023l-8.811-0.013H34.069z M34.646,36.233c2.997,0.436,4.133,3.837,3.406,10.206l-7.696-7.696
			h4.29V36.233z"/>
		<path fill-rule="evenodd" clip-rule="evenodd" fill="#B26D2A" d="M30.355,38.743h-0.166h-0.282h-4.38v-2.497v-2.434
			c0.196,0.743,0.32,1.541,0.372,2.395c0.007,0.03,0.012,0.064,0.013,0.103v-9.322h0.218v11.141h4.06h3.88V26.975h0.205l-0.025,9.22
			c0.068-0.896,0.2-1.729,0.396-2.497v2.536v2.51H30.355z"/>
		<path fill-rule="evenodd" clip-rule="evenodd" fill="#BA762C" d="M25.528,33.813c-1.144-4.345-4.811-6.616-11-6.813l11.384-0.013
			v9.322c-0.001-0.038-0.005-0.072-0.013-0.103C25.848,35.354,25.724,34.556,25.528,33.813z"/>
		<path fill-rule="evenodd" clip-rule="evenodd" fill="#F5B949" d="M34.646,33.697c1.042-4.131,3.854-6.368,8.439-6.71h2.023
			c0.153-0.009,0.312-0.013,0.474-0.013h0.525V47.4H30.189v-8.657h0.166l7.696,7.696c0.727-6.369-0.409-9.771-3.406-10.206V33.697z
			 M30.189,26.975h3.88v11.153h-3.88V26.975z"/>
		<path fill-rule="evenodd" clip-rule="evenodd" fill="#AE6828" d="M43.085,26.987c-4.585,0.342-7.397,2.579-8.439,6.71
			c-0.196,0.769-0.328,1.601-0.396,2.497l0.025-9.22L43.085,26.987z"/>
		<path fill-rule="evenodd" clip-rule="evenodd" fill="#470305" d="M46.107,47.4v1.152c-0.025,0.017-0.047,0.034-0.064,0.051
			c-0.504,0.393-1.007,0.765-1.511,1.114c-0.009,0.009-0.021,0.018-0.039,0.025c-4.269,2.911-9.036,4.312-14.304,4.2v-1.152
			c4.517,0.094,8.665-0.922,12.447-3.048c0.623-0.35,1.238-0.729,1.844-1.14c0.018-0.008,0.034-0.021,0.052-0.038
			C45.062,48.198,45.586,47.81,46.107,47.4z"/>
		<path fill-rule="evenodd" clip-rule="evenodd" fill="#650711" d="M13.759,48.553V47.4c0.495,0.427,1.007,0.828,1.537,1.203
			c0.563,0.41,1.144,0.79,1.742,1.14c3.748,2.186,8.106,3.202,13.075,3.048c0.025,0,0.052,0,0.077,0V47.4h15.918
			c-0.521,0.409-1.046,0.798-1.575,1.165c-0.018,0.017-0.034,0.03-0.052,0.038c-0.605,0.41-1.221,0.79-1.844,1.14
			c-3.782,2.126-7.931,3.142-12.447,3.048v1.152c5.268,0.111,10.035-1.289,14.304-4.2c0.018-0.008,0.03-0.017,0.039-0.025
			c0.504-0.35,1.007-0.722,1.511-1.114c0.018-0.017,0.039-0.034,0.064-0.051v11.436H30.189v-6.045c-0.025,0-0.052,0-0.077,0
			c-5.771,0.18-10.718-1.221-14.842-4.2c-0.504-0.358-0.986-0.738-1.447-1.14C13.798,48.587,13.776,48.569,13.759,48.553z"/>
		<path fill-rule="evenodd" clip-rule="evenodd" fill="#A1001A" d="M13.759,47.4h16.43v5.391c-0.025,0-0.052,0-0.077,0
			c-4.968,0.154-9.327-0.862-13.075-3.048c-0.598-0.35-1.178-0.729-1.742-1.14C14.767,48.229,14.254,47.827,13.759,47.4z
			 M30.189,59.988h-16.43V48.553c0.017,0.017,0.039,0.034,0.064,0.051c0.461,0.401,0.943,0.781,1.447,1.14
			c4.124,2.979,9.071,4.38,14.842,4.2c0.025,0,0.052,0,0.077,0V59.988z"/>
	</g>
</g>
</svg>
