<?xml version="1.0" encoding="utf-8"?>
<!-- Generator: Adobe Illustrator 16.0.0, SVG Export Plug-In . SVG Version: 6.00 Build 0)  -->
<!DOCTYPE svg PUBLIC "-//W3C//DTD SVG 1.1//EN" "http://www.w3.org/Graphics/SVG/1.1/DTD/svg11.dtd">
<svg version="1.1" id="Selected_Items" xmlns="http://www.w3.org/2000/svg" xmlns:xlink="http://www.w3.org/1999/xlink" x="0px"
	 y="0px" width="60px" height="60px" viewBox="0 0 60 60" enable-background="new 0 0 60 60" xml:space="preserve">
<g>
	<g>
		<path fill-rule="evenodd" clip-rule="evenodd" fill="#1F2B3D" d="M47.462,38.002l-2.023,1.051l1.038-4.034l-0.013-12.383h0.794
			l0.807,12.14l-0.589,3.227H47.462z M14.897,38.579l0.115,0.448v0.025l-1.908-1.051l-0.717-3.227l0.807-12.14h0.794l-0.013,12.383
			L14.897,38.579z M30.251,40.614v-4.827h4.457v-1.332c1.391,0.7,2.441,1.883,3.149,3.547c0.12,0.282,0.231,0.581,0.333,0.896
			c0.043,0.146,0.086,0.291,0.129,0.436c0.11,0.41,0.209,0.837,0.294,1.28H30.251z"/>
		<path fill-rule="evenodd" clip-rule="evenodd" fill="#F5B949" d="M47.462,38.988l-16.968,11.09l-0.179,0.18l-0.064-9.644h8.362
			c-0.085-0.443-0.184-0.87-0.294-1.28c-0.043-0.145-0.086-0.29-0.129-0.436c-0.102-0.315-0.213-0.614-0.333-0.896
			c-0.708-1.664-1.759-2.847-3.149-3.547v-4.79c0.375-1.494,0.985-2.74,1.831-3.739c0.742-0.879,1.664-1.566,2.766-2.062h0.115
			c0.025-0.017,0.056-0.034,0.09-0.051c1.05-0.624,2.263-1.012,3.637-1.166h2.023c0.128-0.008,0.256-0.013,0.385-0.013
			c0.025,0,0.328,0,0.909,0l0.013,12.383l-1.038,4.034l2.023-1.051V38.988z M52.815,48.375h-1.755v-1.972l-3.521-3.521l1.575-1.153
			l3.867,4.239L52.815,48.375z M30.251,34.916V22.635h3.88v12.281H30.251z"/>
		<polygon fill-rule="evenodd" clip-rule="evenodd" fill="#CFCFCF" points="30.315,50.258 30.494,50.078 47.462,38.988 
			49.114,41.729 47.539,42.882 33.094,53.318 30.328,50.296 30.328,50.271 		"/>
		<path fill-rule="evenodd" clip-rule="evenodd" fill="#056133" d="M30.328,59.913l0.013-5.622c0-0.11,0-0.213,0-0.307
			c-0.009-1.05-0.013-2.101-0.013-3.15v-0.538l2.766,3.022l14.445-10.437l3.521,3.521v1.972h1.755l-0.819,11.538H30.328z"/>
		<path fill-rule="evenodd" clip-rule="evenodd" fill="#FFDD6B" d="M13.091,42.869l-3.522,3.508v1.973H7.815l-0.167-2.382v-0.025
			l3.868-4.239l0.013,0.013l1.563,1.14V42.869z M30.251,40.614l0.064,9.644l-0.18-0.18L13.104,38.911v-0.909l1.908,1.051v-0.025
			l0.051,0.025l-0.128-0.487l-0.038,0.014l-0.922-3.561l0.013-12.383c0.017,0,0.038,0,0.064,0c0.051,0,0.103,0.004,0.154,0.013
			h0.128c0.042-0.008,0.085-0.008,0.128,0c0.256-0.008,0.512-0.008,0.769,0h0.461c1.434,0.239,2.719,0.627,3.854,1.166
			c0.034,0.017,0.068,0.034,0.103,0.051h0.141c3.125,1.118,5.059,3.09,5.801,5.916v4.674c-0.291,0.145-0.559,0.312-0.807,0.499
			l-0.256,0.192l-0.769,0.704c-0.521,0.598-0.96,1.315-1.319,2.151c-0.12,0.282-0.23,0.581-0.333,0.896
			c-0.042,0.146-0.085,0.291-0.128,0.436c-0.111,0.401-0.209,0.828-0.294,1.28H30.251z M30.251,22.635v12.281h-4.06V22.648h3.982
			v-0.013H30.251z"/>
		<path fill-rule="evenodd" clip-rule="evenodd" fill="#AE6828" d="M30.251,34.916h3.88V22.635l9.016,0.013
			c-1.374,0.154-2.587,0.542-3.637,1.166c-0.034,0.017-0.064,0.034-0.09,0.051h-0.115c-1.102,0.495-2.023,1.182-2.766,2.062
			c-0.846,0.999-1.456,2.245-1.831,3.739v4.79v1.332h-4.457H25.59v-1.332v-4.674c-0.743-2.826-2.676-4.798-5.801-5.916h-0.141
			c-0.034-0.017-0.068-0.034-0.103-0.051c-1.136-0.538-2.42-0.926-3.854-1.166h10.5v12.268H30.251z M25.974,33.078v-0.083h-0.013
			C25.969,33.027,25.973,33.055,25.974,33.078z"/>
		<path fill-rule="evenodd" clip-rule="evenodd" fill="#2B3A53" d="M25.59,34.455v1.332h4.661v4.827h-8.567
			c0.085-0.452,0.184-0.879,0.294-1.28c0.042-0.145,0.085-0.29,0.128-0.436c0.103-0.315,0.213-0.614,0.333-0.896
			c0.358-0.836,0.798-1.554,1.319-2.151l0.769-0.704l0.256-0.192C25.031,34.767,25.299,34.6,25.59,34.455z"/>
		<polygon fill-rule="evenodd" clip-rule="evenodd" fill="#FFFFFF" points="30.315,50.283 29.713,50.962 27.536,53.318 
			13.091,42.869 13.091,42.855 11.529,41.716 13.104,38.911 30.136,50.078 30.315,50.258 30.328,50.271 		"/>
		<path fill-rule="evenodd" clip-rule="evenodd" fill="#049D51" d="M30.328,50.296v0.538c0,1.05,0.004,2.101,0.013,3.15
			c0,0.094,0,0.196,0,0.307l-0.013,5.622H8.635L7.815,48.35h1.754v-1.973l3.522-3.508l14.445,10.449l2.177-2.356l0.602-0.653v-0.025
			l0.013-0.013V50.296z"/>
		<path fill-rule="evenodd" clip-rule="evenodd" fill="#BA762C" d="M25.974,33.078c-0.001-0.023-0.005-0.051-0.013-0.083h0.013
			V33.078z"/>
	</g>
	<g>
		<g>
			<path fill-rule="evenodd" clip-rule="evenodd" fill="#1F2B3D" d="M42.823,30.439l-6.544,0.064
				c-0.265-0.009-0.482-0.073-0.653-0.192c-0.008-0.008-0.017-0.017-0.025-0.025c-0.128-0.137-0.218-0.329-0.269-0.576l-0.73-3.855
				c-0.401-1.298-1.622-2.002-3.662-2.113V23.14h4.162c0.034,0,0.056,0,0.063,0h0.358L42.823,30.439z M44.092,29.53l-6.391-6.391
				h6.724c0.017,0,0.029,0,0.038,0c0.052-0.008,0.094-0.004,0.128,0.013c0.009,0,0.018,0,0.025,0h0.014
				c0.085,0.008,0.162,0.03,0.23,0.064c0.315,0.145,0.435,0.491,0.358,1.037c-0.009,0.06-0.025,0.141-0.052,0.244L44.092,29.53z"/>
			<path fill-rule="evenodd" clip-rule="evenodd" fill="#2B3A53" d="M25.471,30.504l-5.392-7.364h6.557c0.008,0,0.03,0,0.064,0
				h4.239v0.602c-2.101,0.146-3.347,0.85-3.74,2.113l-0.73,3.855c-0.051,0.265-0.149,0.465-0.295,0.602
				c-0.17,0.12-0.388,0.184-0.653,0.192H25.471z M17.953,23.14l5.827,7.352l-5.084-0.064c-0.538-0.017-0.858-0.286-0.96-0.807
				l-1.102-5.123c-0.025-0.103-0.042-0.184-0.051-0.244c-0.094-0.674,0.106-1.042,0.602-1.101c0.051-0.017,0.115-0.021,0.192-0.013
				H17.953z"/>
			<polygon fill-rule="evenodd" clip-rule="evenodd" fill="#FFFFFF" points="20.079,23.14 25.471,30.504 23.78,30.491 17.953,23.14 
							"/>
			<path fill-rule="evenodd" clip-rule="evenodd" fill="#CCCCCC" d="M44.092,29.53l-0.025,0.09
				c-0.061,0.316-0.201,0.538-0.423,0.666c-0.146,0.085-0.324,0.132-0.538,0.141l-0.282,0.013l-7.3-7.3h2.178L44.092,29.53z"/>
		</g>
	</g>
	<g>
		<g>
			<path fill-rule="evenodd" clip-rule="evenodd" fill="#056133" d="M30.952,19.157V0.69l9.477,10.181h13.524l-5.994,12.41
				C44.398,20.831,38.729,19.456,30.952,19.157z"/>
			<path fill-rule="evenodd" clip-rule="evenodd" fill="#2B3A53" d="M13.804,23.307c3.859-2.613,9.575-3.996,17.148-4.149v4.124
				L13.804,23.307z"/>
			<path fill-rule="evenodd" clip-rule="evenodd" fill="#1F2B3D" d="M30.952,19.157c7.777,0.298,13.446,1.673,17.007,4.124H30.952
				V19.157z"/>
			<path fill-rule="evenodd" clip-rule="evenodd" fill="#049D51" d="M30.952,0.69v18.467c-7.573,0.153-13.29,1.537-17.148,4.149
				L8.13,10.871h13.332L30.952,0.69z"/>
		</g>
		<g>
			<g>
				<polygon fill-rule="evenodd" clip-rule="evenodd" fill="#FFDD6B" points="30.965,9.181 30.965,18.081 25.099,12.177 
					27.981,12.177 				"/>
				<polygon fill-rule="evenodd" clip-rule="evenodd" fill="#F5B949" points="30.965,18.081 30.965,9.181 33.936,12.177 
					36.805,12.177 				"/>
			</g>
		</g>
	</g>
</g>
</svg>
