<?xml version="1.0" encoding="utf-8"?>
<!-- Generator: Adobe Illustrator 16.0.0, SVG Export Plug-In . SVG Version: 6.00 Build 0)  -->
<!DOCTYPE svg PUBLIC "-//W3C//DTD SVG 1.1//EN" "http://www.w3.org/Graphics/SVG/1.1/DTD/svg11.dtd">
<svg version="1.1" id="Selected_Items" xmlns="http://www.w3.org/2000/svg" xmlns:xlink="http://www.w3.org/1999/xlink" x="0px"
	 y="0px" width="60px" height="60px" viewBox="0 0 60 60" enable-background="new 0 0 60 60" xml:space="preserve">
<g>
	<g>
		<path fill-rule="evenodd" clip-rule="evenodd" fill="#2B3A53" d="M30.304,45.369H10.505V14.392h14.702v-4.354h3.931l-8.234-8.247
			l1.127-1.14l8.248,8.26l1.14,1.127h-1.114v8.247H13.656v23.845h16.648V45.369z M6.792,49.198h23.512v10.795H7.868L6.792,49.198z"
			/>
		<path fill-rule="evenodd" clip-rule="evenodd" fill="#1F2B3D" d="M50.627,45.356l-0.013,0.013H30.304v-3.24h16.763V18.284H30.304
			v-8.247h1.114l-1.14-1.127l8.26-8.26l1.127,1.14l-8.247,8.247h4.085v4.354h15.124V45.356z M30.304,59.993V49.198h23.845
			l-1.793,10.795H30.304z"/>
		<polygon fill-rule="evenodd" clip-rule="evenodd" fill="#056133" points="54.148,49.198 30.304,49.198 30.304,45.369 
			50.614,45.369 50.627,45.356 		"/>
		<rect x="30.304" y="18.284" fill-rule="evenodd" clip-rule="evenodd" fill="#CFCFCF" width="16.763" height="23.845"/>
		<polygon fill-rule="evenodd" clip-rule="evenodd" fill="#049D51" points="10.505,45.369 30.304,45.369 30.304,49.198 
			6.792,49.198 		"/>
		<rect x="13.656" y="18.284" fill-rule="evenodd" clip-rule="evenodd" fill="#FFFFFF" width="16.648" height="23.845"/>
	</g>
</g>
</svg>
