<?xml version="1.0" encoding="utf-8"?>
<!-- Generator: Adobe Illustrator 16.0.0, SVG Export Plug-In . SVG Version: 6.00 Build 0)  -->
<!DOCTYPE svg PUBLIC "-//W3C//DTD SVG 1.1//EN" "http://www.w3.org/Graphics/SVG/1.1/DTD/svg11.dtd">
<svg version="1.1" id="Selected_Items" xmlns="http://www.w3.org/2000/svg" xmlns:xlink="http://www.w3.org/1999/xlink" x="0px"
	 y="0px" width="60px" height="60px" viewBox="0 0 60 60" enable-background="new 0 0 60 60" xml:space="preserve">
<g>
	<g>
		<path fill-rule="evenodd" clip-rule="evenodd" fill="#CCCCCC" d="M12.891,31.137c1.323,3.68,3.577,6.505,6.761,8.478
			c-0.324,0.956-0.572,2.015-0.743,3.176c1.093-0.726,2.194-1.345,3.304-1.857c2.322,0.982,5.02,1.618,8.093,1.908v8.465
			c-0.521-0.077-1.028-0.157-1.523-0.243c-2.45-0.436-4.653-0.994-6.608-1.678c-0.82-0.29-1.601-0.598-2.343-0.922
			c-0.709-0.308-1.375-0.632-1.998-0.973c-0.341-0.188-0.67-0.381-0.986-0.577c-0.163-0.103-0.325-0.205-0.487-0.307
			c-1.904-1.247-3.402-2.689-4.495-4.329c-0.068-0.11-0.137-0.222-0.205-0.333l-0.755,0.692c-0.051-0.88-0.017-1.874,0.102-2.984
			C11.256,37.313,11.883,34.475,12.891,31.137z M12.891,29.946c-2.075,3.679-3.261,6.595-3.56,8.747
			c-3.654-2.348-4.986-5.037-3.996-8.068l3.829-13.587l1.037-6.915c1.144-6.198,3.748-9.485,7.812-9.861h12.293v6.992l-0.115-0.013
			c-10.082-2.604-15.849-0.747-17.3,5.57V29.946z M37.632,21.775c-0.794,0.478-1.588,0.688-2.382,0.627
			c-0.196-0.017-0.393-0.047-0.589-0.09c-0.598-0.153-1.191-0.461-1.78-0.922c0.581,0.367,1.179,0.563,1.793,0.589
			c1.323,0.06,2.706-0.696,4.149-2.266c1.861-2.032,3.68-1.687,5.455,1.037c-1.784-1.682-3.505-1.729-5.161-0.141
			C38.665,21.054,38.17,21.442,37.632,21.775z M23.891,21.967c0.794,0.085,1.571-0.106,2.331-0.576
			c-0.803,0.606-1.605,0.943-2.408,1.012c-0.811,0.068-1.626-0.141-2.446-0.627c-0.546-0.333-1.05-0.721-1.511-1.166
			c-1.69-1.588-3.449-1.541-5.276,0.141c1.81-2.724,3.667-3.069,5.57-1.037C21.441,21.088,22.688,21.839,23.891,21.967z"/>
		<path fill-rule="evenodd" clip-rule="evenodd" fill="#FFDD6B" d="M30.307,34.325h-3.905V23.223
			c-0.009-0.009-0.017-0.013-0.026-0.013c-0.102-0.042-0.205-0.047-0.307-0.013c-0.691,0.179-1.375,0.329-2.049,0.448
			c-2.817,0.487-5.438,0.337-7.862-0.448c-0.137-0.042-0.269-0.03-0.397,0.039c-0.128,0.06-0.213,0.158-0.256,0.294
			c-0.043,0.128-0.03,0.256,0.039,0.384c0.06,0.128,0.158,0.213,0.294,0.256c1.101,0.359,2.245,0.594,3.432,0.705l6.416,2.343
			c0,0.06,0,0.12,0,0.179l0.013,5.929c-2.919,0.862-4.935,2.958-6.044,6.288c-3.184-1.973-5.438-4.798-6.761-8.478v-1.191V12.811
			c1.451-6.317,7.218-8.174,17.3-5.57c0.043,0.008,0.081,0.021,0.115,0.038V34.325z M23.891,21.967
			c-1.204-0.128-2.45-0.879-3.739-2.253c-1.904-2.032-3.761-1.687-5.57,1.037c1.827-1.682,3.585-1.729,5.276-0.141
			c0.461,0.444,0.965,0.833,1.511,1.166c0.819,0.487,1.635,0.696,2.446,0.627c0.802-0.068,1.605-0.406,2.408-1.012
			C25.462,21.861,24.685,22.053,23.891,21.967z M22.099,12.773c-0.231-0.06-0.227-0.047,0.013,0.038
			C22.094,12.803,22.09,12.79,22.099,12.773z M22.214,40.933c2.638-1.221,5.335-1.84,8.093-1.856v3.765
			C27.234,42.551,24.536,41.915,22.214,40.933z"/>
		<path fill-rule="evenodd" clip-rule="evenodd" fill="#999999" d="M48.876,39.652c0.094,0.88,0.137,1.69,0.128,2.434l-0.679-0.628
			l-0.27,0.819c-0.896,1.4-2.078,2.655-3.547,3.766c-0.393,0.299-0.811,0.589-1.255,0.87c-0.222,0.146-0.448,0.286-0.679,0.423
			c-0.657,0.376-1.354,0.738-2.087,1.089c-0.743,0.341-1.528,0.661-2.356,0.96c-1.93,0.7-4.072,1.268-6.429,1.703
			c-0.436,0.077-0.88,0.149-1.332,0.218c-0.018,0-0.038,0-0.064,0v-8.465c2.954-0.29,5.55-0.926,7.786-1.908
			c1.067,0.513,2.126,1.132,3.176,1.857c-0.162-1.161-0.396-2.22-0.704-3.176c3.065-1.973,5.233-4.798,6.506-8.478
			C48.035,34.475,48.637,37.313,48.876,39.652z M50.221,38.871c-0.248-2.065-1.157-5.626-2.729-10.68
			c-0.136-0.435-0.277-0.879-0.422-1.332V12.811c-1.4-6.317-6.949-8.17-16.648-5.558h-0.006h-0.109V0.261H42.14
			c3.91,0.376,6.416,3.663,7.518,9.861l1.012,6.915l3.662,13.587C55.313,33.731,53.942,36.48,50.221,38.871z M9.331,38.692
			c0.299-2.151,1.485-5.067,3.56-8.747v1.191c-1.008,3.338-1.635,6.177-1.883,8.516C10.402,39.337,9.843,39.017,9.331,38.692z"/>
		<path fill-rule="evenodd" clip-rule="evenodd" fill="#F5B949" d="M30.416,7.253h0.006c9.699-2.612,15.248-0.76,16.648,5.558
			v14.048v4.277c-1.272,3.68-3.44,6.505-6.506,8.478c-1.067-3.321-3.001-5.417-5.801-6.288v-6.083l6.582-2.343
			c1.195-0.111,2.356-0.346,3.483-0.704c0.137-0.043,0.239-0.124,0.308-0.244c0.06-0.128,0.068-0.26,0.025-0.396
			c-0.043-0.137-0.124-0.235-0.243-0.295c-0.128-0.068-0.261-0.081-0.397-0.038c-3.082,0.964-6.463,0.964-10.143,0
			c-0.102-0.034-0.2-0.03-0.294,0.013c-0.025,0-0.047,0.008-0.064,0.025v11.064h-3.714V7.279h0.026
			C30.356,7.263,30.385,7.254,30.416,7.253z M37.632,21.775c0.538-0.333,1.033-0.721,1.485-1.166
			c1.656-1.588,3.377-1.541,5.161,0.141c-1.775-2.724-3.594-3.069-5.455-1.037c-1.443,1.57-2.826,2.326-4.149,2.266
			c-0.614-0.025-1.212-0.222-1.793-0.589c0.589,0.461,1.183,0.769,1.78,0.922c0.196,0.043,0.393,0.073,0.589,0.09
			C36.044,22.463,36.838,22.253,37.632,21.775z M30.307,39.076c2.655,0.017,5.251,0.636,7.786,1.856
			c-2.236,0.982-4.832,1.618-7.786,1.908V39.076z"/>
		<path fill-rule="evenodd" clip-rule="evenodd" fill="#666666" d="M50.221,38.871c-0.419,0.265-0.867,0.525-1.345,0.781
			c-0.239-2.339-0.841-5.178-1.806-8.516v-4.277c0.145,0.452,0.286,0.896,0.422,1.332C49.063,33.245,49.973,36.806,50.221,38.871z"
			/>
		<path fill-rule="evenodd" clip-rule="evenodd" fill="#B26D2A" d="M41.346,24.9c-2.083,0.188-4.277,0.009-6.582-0.538v2.881v6.083
			v1.512c0,0.008,0,0.017,0,0.025h-4.457h-4.61c0-0.009,0-0.018,0-0.025v-1.512l-0.013-5.929c0-0.06,0-0.119,0-0.179
			c0-0.956,0-1.912,0-2.869c-0.503,0.111-0.999,0.214-1.485,0.308c-1.716,0.291-3.359,0.363-4.93,0.218
			c-1.187-0.111-2.331-0.346-3.432-0.705c-0.137-0.042-0.235-0.128-0.294-0.256c-0.068-0.128-0.082-0.256-0.039-0.384
			c0.042-0.137,0.128-0.235,0.256-0.294c0.128-0.068,0.261-0.081,0.397-0.039c2.424,0.785,5.045,0.935,7.862,0.448
			c0.675-0.12,1.358-0.269,2.049-0.448c0.103-0.034,0.205-0.03,0.307,0.013c0.009,0,0.017,0.004,0.026,0.013v11.103h3.905h3.714
			V23.261c0.018-0.017,0.039-0.025,0.064-0.025c0.094-0.043,0.192-0.047,0.294-0.013c3.68,0.964,7.061,0.964,10.143,0
			c0.137-0.043,0.27-0.03,0.397,0.038c0.119,0.06,0.2,0.158,0.243,0.295c0.043,0.136,0.034,0.269-0.025,0.396
			c-0.068,0.12-0.171,0.201-0.308,0.244C43.702,24.554,42.541,24.789,41.346,24.9z"/>
		<path fill-rule="evenodd" clip-rule="evenodd" fill="#1F2B3D" d="M43.446,59.963l-0.192-13.05c0.444-0.281,0.862-0.571,1.255-0.87
			c1.469-1.11,2.65-2.365,3.547-3.766l0.27-0.819l0.679,0.628l4.699,4.328l-0.486,8.926l-0.038,4.623H43.446z M30.307,39.076v-4.213
			h4.457c0-0.009,0-0.018,0-0.025v-1.512c2.8,0.871,4.733,2.967,5.801,6.288c0.308,0.956,0.542,2.015,0.704,3.176
			c-1.05-0.726-2.108-1.345-3.176-1.857C35.558,39.712,32.962,39.093,30.307,39.076z M38.132,49.385l-7.825,5.737v-3.816
			c0.026,0,0.047,0,0.064,0c0.452-0.068,0.896-0.141,1.332-0.218C34.06,50.652,36.202,50.085,38.132,49.385z"/>
		<path fill-rule="evenodd" clip-rule="evenodd" fill="#BA762C" d="M34.764,27.243v-2.881c2.305,0.547,4.499,0.726,6.582,0.538
			L34.764,27.243z M19.269,24.875c1.571,0.145,3.214,0.073,4.93-0.218c0.486-0.094,0.982-0.196,1.485-0.308c0,0.957,0,1.913,0,2.869
			L19.269,24.875z"/>
		<path fill-rule="evenodd" clip-rule="evenodd" fill="#2B3A53" d="M16.848,46.913v13.05H7.346L7.308,55.34l-0.5-8.926l4.098-3.777
			l0.755-0.692c0.068,0.111,0.137,0.223,0.205,0.333c1.093,1.64,2.591,3.082,4.495,4.329C16.523,46.708,16.686,46.811,16.848,46.913
			z M30.307,34.863v4.213c-2.757,0.017-5.455,0.636-8.093,1.856c-1.11,0.513-2.211,1.132-3.304,1.857
			c0.171-1.161,0.418-2.22,0.743-3.176c1.11-3.33,3.125-5.426,6.044-6.288v1.512c0,0.008,0,0.017,0,0.025H30.307z M30.307,55.122
			l-8.131-5.737c1.955,0.684,4.158,1.242,6.608,1.678c0.495,0.086,1.003,0.166,1.523,0.243V55.122z"/>
		<path fill-rule="evenodd" clip-rule="evenodd" fill="#A1001A" d="M22.175,49.385l8.131,5.737v4.841H16.848v-13.05
			c0.316,0.196,0.645,0.389,0.986,0.577c0.624,0.341,1.289,0.665,1.998,0.973C20.575,48.787,21.355,49.095,22.175,49.385z"/>
		<path fill-rule="evenodd" clip-rule="evenodd" fill="#650711" d="M43.254,46.913l0.192,13.05h-13.14v-4.841l7.825-5.737
			c0.828-0.299,1.613-0.619,2.356-0.96c0.733-0.351,1.43-0.713,2.087-1.089C42.806,47.199,43.032,47.059,43.254,46.913z"/>
		
			<path fill-rule="evenodd" clip-rule="evenodd" fill="none" stroke="#999999" stroke-width="3" stroke-linecap="round" stroke-linejoin="round" stroke-miterlimit="3" d="
			M37.632,21.775c-0.794,0.478-1.588,0.688-2.382,0.627c-0.196-0.017-0.393-0.047-0.589-0.09c-0.598-0.153-1.191-0.461-1.78-0.922
			c0.581,0.367,1.179,0.563,1.793,0.589c1.323,0.06,2.706-0.696,4.149-2.266c1.861-2.032,3.68-1.687,5.455,1.037
			c-1.784-1.682-3.505-1.729-5.161-0.141C38.665,21.054,38.17,21.442,37.632,21.775z M23.891,21.967
			c-1.204-0.128-2.45-0.879-3.739-2.253c-1.904-2.032-3.761-1.687-5.57,1.037c1.827-1.682,3.585-1.729,5.276-0.141
			c0.461,0.444,0.965,0.833,1.511,1.166c0.819,0.487,1.635,0.696,2.446,0.627c0.802-0.068,1.605-0.406,2.408-1.012
			C25.462,21.861,24.685,22.053,23.891,21.967z"/>
	</g>
	<g>
		<path fill-rule="evenodd" clip-rule="evenodd" fill="#BA762C" d="M38.667,15.594c-0.103,0.094-0.226,0.141-0.371,0.141H22.21
			c-0.145,0-0.265-0.047-0.358-0.141c-0.103-0.103-0.154-0.226-0.154-0.372c0-0.145,0.051-0.265,0.154-0.358
			c0.094-0.103,0.213-0.154,0.358-0.154h16.085c0.146,0,0.269,0.051,0.371,0.154c0.094,0.094,0.141,0.213,0.141,0.358
			C38.808,15.368,38.761,15.492,38.667,15.594z"/>
	</g>
	<g>
		<path fill-rule="evenodd" clip-rule="evenodd" fill="#BA762C" d="M34.582,11.381c0.077,0,0.145,0.051,0.205,0.154
			c0.051,0.094,0.076,0.213,0.076,0.358s-0.025,0.269-0.076,0.372c-0.061,0.094-0.128,0.141-0.205,0.141h-8.67
			c-0.077,0-0.141-0.047-0.192-0.141c-0.051-0.103-0.077-0.227-0.077-0.372s0.026-0.265,0.077-0.358
			c0.051-0.103,0.115-0.154,0.192-0.154H34.582z"/>
	</g>
</g>
</svg>
