<?xml version="1.0" encoding="utf-8"?>
<!-- Generator: Adobe Illustrator 16.0.0, SVG Export Plug-In . SVG Version: 6.00 Build 0)  -->
<!DOCTYPE svg PUBLIC "-//W3C//DTD SVG 1.1//EN" "http://www.w3.org/Graphics/SVG/1.1/DTD/svg11.dtd">
<svg version="1.1" id="Selected_Items" xmlns="http://www.w3.org/2000/svg" xmlns:xlink="http://www.w3.org/1999/xlink" x="0px"
	 y="0px" width="60px" height="60px" viewBox="0 0 60 60" enable-background="new 0 0 60 60" xml:space="preserve">
<g>
	<g>
		<path fill-rule="evenodd" clip-rule="evenodd" fill="#F5B949" d="M46.48,47.076H30.294v-6.992h4.457v-5.302
			c1.041-4.132,3.854-6.369,8.438-6.71h2.023c0.154-0.009,0.312-0.013,0.474-0.013h0.794V47.076z M34.175,28.06v11.153h-3.881V28.06
			H34.175z"/>
		<polygon fill-rule="evenodd" clip-rule="evenodd" fill="#056133" points="30.294,56.514 46.48,50.943 46.48,59.997 30.294,59.997 
					"/>
		<polygon fill-rule="evenodd" clip-rule="evenodd" fill="#074D27" points="30.294,54.452 46.48,47.076 46.48,50.943 30.294,56.514 
					"/>
		<path fill-rule="evenodd" clip-rule="evenodd" fill="#B26D2A" d="M30.294,39.213h3.881V28.06h0.204l-0.025,9.22
			c0.057-0.744,0.157-1.443,0.301-2.1c0.031-0.135,0.063-0.267,0.097-0.397v5.302h-4.457h-4.661v-5.187
			c0.025,0.094,0.048,0.188,0.07,0.282c0.156,0.661,0.256,1.366,0.301,2.112c0.008,0.032,0.012,0.061,0.013,0.084v-9.304h0.218
			v11.141H30.294z"/>
		<path fill-rule="evenodd" clip-rule="evenodd" fill="#FFDD6B" d="M30.294,47.076H13.48v-18.94c0.512-0.043,0.896-0.06,1.152-0.051
			c6.19,0.196,9.856,2.467,11,6.813v5.187h4.661V47.076z M30.294,28.06v11.153h-4.059V28.072h3.983V28.06H30.294z M14.594,42.223
			l-0.064,0.064h0.096C14.615,42.266,14.604,42.244,14.594,42.223z"/>
		<path fill-rule="evenodd" clip-rule="evenodd" fill="#AE6828" d="M43.189,28.072c-4.584,0.341-7.397,2.578-8.438,6.71
			c-0.033,0.131-0.065,0.263-0.097,0.397c-0.144,0.656-0.244,1.355-0.301,2.1l0.025-9.22L43.189,28.072z"/>
		<polygon fill-rule="evenodd" clip-rule="evenodd" fill="#049D51" points="13.48,49.15 30.294,56.514 30.294,59.997 13.48,59.997 
					"/>
		<polygon fill-rule="evenodd" clip-rule="evenodd" fill="#078546" points="30.294,56.514 13.48,49.15 13.48,47.076 30.294,54.452 
					"/>
		<path fill-rule="evenodd" clip-rule="evenodd" fill="#BA762C" d="M25.633,34.897c-1.144-4.345-4.811-6.616-11-6.813l11.385-0.013
			v9.304c0-0.023-0.005-0.052-0.013-0.084c-0.045-0.746-0.145-1.451-0.301-2.112C25.681,35.085,25.658,34.991,25.633,34.897z"/>
		<polygon fill-rule="evenodd" clip-rule="evenodd" fill="#FFFFFF" points="30.294,54.452 13.48,47.076 30.294,47.076 		"/>
		<polygon fill-rule="evenodd" clip-rule="evenodd" fill="#CFCFCF" points="46.48,47.076 30.294,54.452 30.294,47.076 		"/>
	</g>
	<g>
		<g>
			<path fill-rule="evenodd" clip-rule="evenodd" fill="#FFFFFF" d="M30.688,1.012v20.055h-18.8v-1.152
				c0.034-1.52,0.213-2.971,0.538-4.354c0.563-2.433,1.584-4.67,3.061-6.711c0.171-0.23,0.346-0.457,0.525-0.679
				c0.077-0.102,0.158-0.205,0.243-0.307c0.333-0.41,0.683-0.807,1.05-1.191c0.008,0,0.013-0.004,0.013-0.013
				c0.367-0.384,0.739-0.743,1.114-1.076c0.256-0.23,0.512-0.452,0.769-0.666c0.896-0.734,1.835-1.362,2.817-1.883
				c0.256-0.137,0.512-0.265,0.769-0.384c0.862-0.41,1.759-0.743,2.689-0.999c0.256-0.077,0.513-0.141,0.769-0.192
				c0.708-0.162,1.435-0.282,2.177-0.359c0.256-0.025,0.512-0.042,0.769-0.051c0.128-0.009,0.256-0.013,0.384-0.013
				c0.256-0.017,0.517-0.025,0.781-0.025c0.06,0,0.12,0,0.18,0c0.025,0,0.047,0,0.063,0C30.633,1.012,30.663,1.012,30.688,1.012z"/>
			<path fill-rule="evenodd" clip-rule="evenodd" fill="#CFCFCF" d="M48.823,21.067H30.688V1.012
				c0.444,0.008,0.884,0.03,1.319,0.064c0.256,0.025,0.512,0.056,0.769,0.09c0.879,0.103,1.737,0.273,2.574,0.512
				c0.256,0.077,0.512,0.158,0.768,0.243c0.743,0.248,1.469,0.551,2.178,0.909c0.256,0.128,0.512,0.265,0.769,0.41
				c0.981,0.555,1.921,1.216,2.817,1.985c0.256,0.222,0.512,0.453,0.769,0.691c0.256,0.239,0.508,0.487,0.755,0.743l0.013,0.013
				c0.462,0.487,0.896,0.986,1.307,1.498c0.214,0.273,0.419,0.551,0.615,0.833c0.272,0.384,0.529,0.777,0.768,1.178
				c1.008,1.673,1.738,3.466,2.19,5.379c0.324,1.383,0.499,2.834,0.525,4.354V21.067z"/>
			<polygon fill-rule="evenodd" clip-rule="evenodd" fill="#999999" points="30.688,21.067 48.823,21.067 48.823,22.476 
				11.888,22.476 11.888,21.067 			"/>
		</g>
		<g>
			<g>
				<rect x="30.688" y="22.348" fill-rule="evenodd" clip-rule="evenodd" fill="#CFCFCF" width="19.274" height="6.275"/>
				<rect x="10.825" y="22.348" fill-rule="evenodd" clip-rule="evenodd" fill="#FFFFFF" width="19.863" height="6.275"/>
			</g>
		</g>
	</g>
</g>
</svg>
